<?xml version="1.0" standalone="no"?>
<!DOCTYPE svg PUBLIC "-//W3C//DTD SVG 20010904//EN" 
"http://www.w3.org/TR/2001/REC-SVG-20010904/DTD/svg10.dtd"> 
<svg xmlns="http://www.w3.org/2000/svg" xmlns:xlink="http://www.w3.org/1999/xlink" 
    width="29.72cm" height="21.00cm" viewBox="0 0 117000 82670 "> 
<title>SVG Picture created as pcb-brd.svg </title>
<desc>Picture generated by wxSVG v0100 </desc>
<g style="fill:black; stroke:black; stroke-width:1">
</g>
<g style="fill:#000000; fill-opacity:0.0; stroke:#00A000; stroke-opacity:0.59; stroke-linecap:round; stroke-linejoin:round; stroke-width:1260" 
   transform="translate(0.00 0.00) scale(1.00 1.00)">
<path d="M18709 28315 L18827 28433" /> 
</g>
<g style="fill:#000000; fill-opacity:0.0; stroke:#00A000; stroke-opacity:0.59; stroke-linecap:round; stroke-linejoin:round; stroke-width:1496" 
   transform="translate(0.00 0.00) scale(1.00 1.00)">
<path d="M13937 28315 L17842 28315" /> 
<path d="M66260 28543 L14165 28543" /> 
<path d="M14165 28543 L13937 28315" /> 
</g>
<g style="fill:#000000; fill-opacity:0.0; stroke:#00A000; stroke-opacity:0.59; stroke-linecap:round; stroke-linejoin:round; stroke-width:1260" 
   transform="translate(0.00 0.00) scale(1.00 1.00)">
<path d="M34567 28587 L27799 28587" /> 
<path d="M27799 28587 L27756 28544" /> 
<path d="M66260 28543 L59611 28543" /> 
<path d="M59611 28543 L59528 28626" /> 
<path d="M42992 28587 L34567 28587" /> 
<path d="M59528 28626 L51496 28587" /> 
<path d="M18827 28433 L23780 28433" /> 
<path d="M13937 28315 L18709 28315" /> 
<path d="M27756 28544 L27645 28433" /> 
<path d="M27645 28433 L23780 28433" /> 
</g>
<g style="fill:#000000; fill-opacity:0.0; stroke:#00A000; stroke-opacity:0.59; stroke-linecap:round; stroke-linejoin:round; stroke-width:1496" 
   transform="translate(0.00 0.00) scale(1.00 1.00)">
<path d="M27953 28125 L27645 28433" /> 
<path d="M27953 26685 L27953 28125" /> 
<path d="M17842 28315 L17795 28268" /> 
<path d="M17795 28268 L17795 26606" /> 
</g>
<g style="fill:#000000; fill-opacity:0.0; stroke:#00A000; stroke-opacity:0.59; stroke-linecap:round; stroke-linejoin:round; stroke-width:1260" 
   transform="translate(0.00 0.00) scale(1.00 1.00)">
<path d="M59567 12713 L65744 12713" /> 
<path d="M42992 12713 L42953 12752" /> 
<path d="M34567 12752 L42953 12752" /> 
<path d="M51457 12713 L42992 12713" /> 
</g>
<g style="fill:#000000; fill-opacity:0.0; stroke:#00A000; stroke-opacity:0.59; stroke-linecap:round; stroke-linejoin:round; stroke-width:1496" 
   transform="translate(0.00 0.00) scale(1.00 1.00)">
<path d="M23780 12827 L18103 12827" /> 
</g>
<g style="fill:#000000; fill-opacity:0.0; stroke:#00A000; stroke-opacity:0.59; stroke-linecap:round; stroke-linejoin:round; stroke-width:1260" 
   transform="translate(0.00 0.00) scale(1.00 1.00)">
<path d="M65744 12713 L65748 12717" /> 
<path d="M51457 12713 L59567 12713" /> 
</g>
<g style="fill:#000000; fill-opacity:0.0; stroke:#00A000; stroke-opacity:0.59; stroke-linecap:round; stroke-linejoin:round; stroke-width:1496" 
   transform="translate(0.00 0.00) scale(1.00 1.00)">
<path d="M13984 12717 L13858 12591" /> 
</g>
<g style="fill:#000000; fill-opacity:0.0; stroke:#00A000; stroke-opacity:0.59; stroke-linecap:round; stroke-linejoin:round; stroke-width:1260" 
   transform="translate(0.00 0.00) scale(1.00 1.00)">
<path d="M20283 12591 L23544 12591" /> 
<path d="M23544 12591 L23780 12827" /> 
<path d="M13858 12591 L20283 12591" /> 
</g>
<g style="fill:#000000; fill-opacity:0.0; stroke:#00A000; stroke-opacity:0.59; stroke-linecap:round; stroke-linejoin:round; stroke-width:1496" 
   transform="translate(0.00 0.00) scale(1.00 1.00)">
<path d="M27126 12717 L13984 12717" /> 
<path d="M65748 12717 L27126 12717" /> 
<path d="M27953 13544 L27126 12717" /> 
<path d="M27953 14339 L27953 13544" /> 
<path d="M18103 12827 L17795 13135" /> 
<path d="M17795 13135 L17795 14496" /> 
<path d="M51457 25548 L51496 25587" /> 
<path d="M59567 15713 L59567 25587" /> 
<path d="M59567 25587 L59528 25626" /> 
<path d="M51457 15713 L51457 25548" /> 
</g>
<g style="fill:#000000; fill-opacity:0.0; stroke:#00A000; stroke-opacity:0.59; stroke-linecap:round; stroke-linejoin:round; stroke-width:1260" 
   transform="translate(0.00 0.00) scale(1.00 1.00)">
<path d="M61654 21339 L59567 21339" /> 
</g>
<g style="fill:#000000; fill-opacity:0.0; stroke:#00A000; stroke-opacity:0.59; stroke-linecap:round; stroke-linejoin:round; stroke-width:1496" 
   transform="translate(0.00 0.00) scale(1.00 1.00)">
<path d="M66260 21339 L34567 21339" /> 
</g>
<g style="fill:#000000; fill-opacity:0.0; stroke:#00A000; stroke-opacity:0.59; stroke-linecap:round; stroke-linejoin:round; stroke-width:1260" 
   transform="translate(0.00 0.00) scale(1.00 1.00)">
<path d="M42992 24603 L42992 25587" /> 
<path d="M34567 21339 L35984 21339" /> 
<path d="M42992 21575 L42992 24603" /> 
<path d="M51653 21339 L51417 21103" /> 
<path d="M42992 24603 L42992 25587" /> 
<path d="M34803 21575 L34567 21339" /> 
<path d="M59567 15713 L59567 21339" /> 
<path d="M59567 21339 L66260 21339" /> 
<path d="M59528 25626 L59449 21457" /> 
<path d="M59449 21457 L59567 21339" /> 
<path d="M51457 15713 L51417 21103" /> 
</g>
<g style="fill:#000000; fill-opacity:0.0; stroke:#00A000; stroke-opacity:0.59; stroke-linecap:round; stroke-linejoin:round; stroke-width:1496" 
   transform="translate(0.00 0.00) scale(1.00 1.00)">
<path d="M34567 21339 L34803 21575" /> 
<path d="M34567 25587 L34567 21339" /> 
<path d="M42953 25548 L42992 25587" /> 
<path d="M42953 15752 L42953 25548" /> 
<path d="M51141 21299 L51417 21575" /> 
</g>
<g style="fill:#000000; fill-opacity:0.0; stroke:#00A000; stroke-opacity:0.59; stroke-linecap:round; stroke-linejoin:round; stroke-width:1260" 
   transform="translate(0.00 0.00) scale(1.00 1.00)">
<path d="M66260 21339 L61654 21339" /> 
</g>
<g style="fill:#000000; fill-opacity:0.0; stroke:#00A000; stroke-opacity:0.59; stroke-linecap:round; stroke-linejoin:round; stroke-width:1496" 
   transform="translate(0.00 0.00) scale(1.00 1.00)">
<path d="M42992 25587 L42992 21575" /> 
<path d="M42953 21536 L42992 21575" /> 
<path d="M42953 21299 L42953 21536" /> 
<path d="M42953 15752 L42953 21299" /> 
<path d="M42756 21299 L42953 21299" /> 
<path d="M34607 21299 L42756 21299" /> 
<path d="M34567 21339 L34607 21299" /> 
<path d="M34567 15752 L34567 21339" /> 
<path d="M42756 21299 L51141 21299" /> 
</g>
<g style="fill:#000000; fill-opacity:0.0; stroke:#00A000; stroke-opacity:0.59; stroke-linecap:round; stroke-linejoin:round; stroke-width:1260" 
   transform="translate(0.00 0.00) scale(1.00 1.00)">
<path d="M51417 21103 L51653 21339" /> 
<path d="M34567 25587 L34606 22717" /> 
<path d="M34606 22717 L35984 21339" /> 
<path d="M34567 15752 L34567 19922" /> 
<path d="M34567 19922 L35984 21339" /> 
<path d="M51496 25587 L51417 21575" /> 
<path d="M51417 21575 L51653 21339" /> 
<path d="M51417 21575 L51457 15713" /> 
<path d="M51417 21575 L51535 21575" /> 
<path d="M51535 21575 L51417 21575" /> 
</g>
<g style="fill:#000000; fill-opacity:0.0; stroke:#00A000; stroke-opacity:0.59; stroke-linecap:round; stroke-linejoin:round; stroke-width:1496" 
   transform="translate(0.00 0.00) scale(1.00 1.00)">
<path d="M20787 20591 L24173 20591" /> 
<path d="M27953 20394 L27953 18339" /> 
<path d="M23780 18827 L23780 19685" /> 
<path d="M23780 19685 L23780 22433" /> 
<path d="M23780 20591 L24173 20591" /> 
<path d="M23780 18827 L23780 20591" /> 
<path d="M23780 22433 L23780 20591" /> 
<path d="M23858 20669 L24173 20669" /> 
<path d="M24173 20669 L24173 20591" /> 
<path d="M27678 20669 L27953 20394" /> 
<path d="M24173 20669 L27678 20669" /> 
<path d="M27953 20944 L27678 20669" /> 
<path d="M27953 22685 L27953 20944" /> 
<path d="M23780 20591 L23858 20669" /> 
<path d="M13937 22315 L13937 20708" /> 
<path d="M13937 20708 L13780 20551" /> 
<path d="M10669 20551 L13780 20551" /> 
<path d="M13780 20551 L13858 20473" /> 
<path d="M13858 20473 L13858 18591" /> 
</g>
<g style="fill:#000000; fill-opacity:0.0; stroke:#00A000; stroke-opacity:0.59; stroke-linecap:round; stroke-linejoin:round; stroke-width:1260" 
   transform="translate(0.00 0.00) scale(1.00 1.00)">
<path d="M13858 20473 L13780 20551" /> 
<path d="M13858 22236 L13937 22315" /> 
<path d="M13858 20473 L13858 22236" /> 
<path d="M13780 20551 L13858 20473" /> 
</g>
<g style="fill:#000000; fill-opacity:0.0; stroke:#00A000; stroke-opacity:0.59; stroke-linecap:round; stroke-linejoin:round; stroke-width:1496" 
   transform="translate(0.00 0.00) scale(1.00 1.00)">
<path d="M17795 20591 L17795 22606" /> 
<path d="M17795 18496 L17795 20591" /> 
<path d="M13976 20591 L13858 20473" /> 
<path d="M17795 20591 L13976 20591" /> 
</g>
<g style="fill:#808000; fill-opacity:1.00; stroke:#808000; stroke-opacity:1.00; stroke-linecap:round; stroke-linejoin:round; stroke-width:0" 
   transform="translate(0.00 0.00) scale(1.00 1.00)">
<ellipse cx="10669" cy="20551" rx="997" ry="997"  /> 
</g>
<g style="fill:#FFFFFF; fill-opacity:1.00; stroke:#808000; stroke-opacity:1.00; stroke-linecap:round; stroke-linejoin:round; stroke-width:0" 
   transform="translate(0.00 0.00) scale(1.00 1.00)">
<ellipse cx="10669" cy="20551" rx="206" ry="206"  /> 
</g>
<g style="fill:#FFFFFF; fill-opacity:1.00; stroke:#0000C0; stroke-opacity:1.00; stroke-linecap:round; stroke-linejoin:round; stroke-width:0" 
   transform="translate(0.00 0.00) scale(1.00 1.00)">
<path d="M10667 19351 L10671 19351" /> 
<path d="M10669 19349 L10669 19353" /> 
</g>
<g style="fill:#C0C0C0; fill-opacity:0.0; stroke:#C0C0C0; stroke-opacity:1.00; stroke-linecap:round; stroke-linejoin:round; stroke-width:100" 
   transform="translate(0.00 0.00) scale(1.00 1.00)">
<path d="M10374 19513 L10374 19113" /> 
<path d="M10374 19113 L10527 19113" /> 
<path d="M10527 19113 L10565 19132" /> 
<path d="M10565 19132 L10584 19151" /> 
<path d="M10584 19151 L10603 19189" /> 
<path d="M10603 19189 L10603 19246" /> 
<path d="M10603 19246 L10584 19284" /> 
<path d="M10584 19284 L10565 19303" /> 
<path d="M10565 19303 L10527 19322" /> 
<path d="M10527 19322 L10374 19322" /> 
<g style = "stroke-linecap:round;" > 
<path d="M10374 19322 L10374 19322" /> 
</g><path d="M10984 19513 L10755 19513" /> 
<g style = "stroke-linecap:round;" > 
<path d="M10755 19513 L10755 19513" /> 
</g><path d="M10869 19513 L10869 19113" /> 
<path d="M10869 19113 L10831 19170" /> 
<path d="M10831 19170 L10793 19208" /> 
<path d="M10793 19208 L10755 19227" /> 
<g style = "stroke-linecap:round;" > 
<path d="M10755 19227 L10755 19227" /> 
</g></g>
<g style="fill:#00A0A0; fill-opacity:0.0; stroke:#00A0A0; stroke-opacity:1.00; stroke-linecap:round; stroke-linejoin:round; stroke-width:150" 
   transform="translate(0.00 0.00) scale(1.00 1.00)">
<ellipse cx="10669" cy="20551" rx="900" ry="900"  /> 
</g>
<g style="fill:#808000; fill-opacity:1.00; stroke:#808000; stroke-opacity:1.00; stroke-linecap:round; stroke-linejoin:round; stroke-width:0" 
   transform="translate(0.00 0.00) scale(1.00 1.00)">
<ellipse cx="20787" cy="20591" rx="997" ry="997"  /> 
</g>
<g style="fill:#FFFFFF; fill-opacity:1.00; stroke:#808000; stroke-opacity:1.00; stroke-linecap:round; stroke-linejoin:round; stroke-width:0" 
   transform="translate(0.00 0.00) scale(1.00 1.00)">
<ellipse cx="20787" cy="20591" rx="206" ry="206"  /> 
</g>
<g style="fill:#FFFFFF; fill-opacity:1.00; stroke:#0000C0; stroke-opacity:1.00; stroke-linecap:round; stroke-linejoin:round; stroke-width:0" 
   transform="translate(0.00 0.00) scale(1.00 1.00)">
<path d="M20785 19391 L20789 19391" /> 
<path d="M20787 19389 L20787 19393" /> 
</g>
<g style="fill:#C0C0C0; fill-opacity:0.0; stroke:#C0C0C0; stroke-opacity:1.00; stroke-linecap:round; stroke-linejoin:round; stroke-width:100" 
   transform="translate(0.00 0.00) scale(1.00 1.00)">
<path d="M20492 19553 L20492 19153" /> 
<path d="M20492 19153 L20645 19153" /> 
<path d="M20645 19153 L20683 19172" /> 
<path d="M20683 19172 L20702 19191" /> 
<path d="M20702 19191 L20721 19229" /> 
<path d="M20721 19229 L20721 19286" /> 
<path d="M20721 19286 L20702 19324" /> 
<path d="M20702 19324 L20683 19343" /> 
<path d="M20683 19343 L20645 19362" /> 
<path d="M20645 19362 L20492 19362" /> 
<g style = "stroke-linecap:round;" > 
<path d="M20492 19362 L20492 19362" /> 
</g><path d="M20873 19191 L20892 19172" /> 
<path d="M20892 19172 L20930 19153" /> 
<path d="M20930 19153 L21026 19153" /> 
<path d="M21026 19153 L21064 19172" /> 
<path d="M21064 19172 L21083 19191" /> 
<path d="M21083 19191 L21102 19229" /> 
<path d="M21102 19229 L21102 19267" /> 
<path d="M21102 19267 L21083 19324" /> 
<path d="M21083 19324 L20854 19553" /> 
<path d="M20854 19553 L21102 19553" /> 
<g style = "stroke-linecap:round;" > 
<path d="M21102 19553 L21102 19553" /> 
</g></g>
<g style="fill:#00A0A0; fill-opacity:0.0; stroke:#00A0A0; stroke-opacity:1.00; stroke-linecap:round; stroke-linejoin:round; stroke-width:150" 
   transform="translate(0.00 0.00) scale(1.00 1.00)">
<ellipse cx="20787" cy="20591" rx="900" ry="900"  /> 
</g>
<g style="fill:#808000; fill-opacity:1.00; stroke:#808000; stroke-opacity:1.00; stroke-linecap:round; stroke-linejoin:round; stroke-width:0" 
   transform="translate(0.00 0.00) scale(1.00 1.00)">
<ellipse cx="66260" cy="28543" rx="997" ry="997"  /> 
</g>
<g style="fill:#FFFFFF; fill-opacity:1.00; stroke:#808000; stroke-opacity:1.00; stroke-linecap:round; stroke-linejoin:round; stroke-width:0" 
   transform="translate(0.00 0.00) scale(1.00 1.00)">
<ellipse cx="66260" cy="28543" rx="206" ry="206"  /> 
</g>
<g style="fill:#FFFFFF; fill-opacity:1.00; stroke:#0000C0; stroke-opacity:1.00; stroke-linecap:round; stroke-linejoin:round; stroke-width:0" 
   transform="translate(0.00 0.00) scale(1.00 1.00)">
<path d="M66258 27343 L66262 27343" /> 
<path d="M66260 27341 L66260 27345" /> 
</g>
<g style="fill:#C0C0C0; fill-opacity:0.0; stroke:#C0C0C0; stroke-opacity:1.00; stroke-linecap:round; stroke-linejoin:round; stroke-width:100" 
   transform="translate(0.00 0.00) scale(1.00 1.00)">
<path d="M65965 27505 L65965 27105" /> 
<path d="M65965 27105 L66118 27105" /> 
<path d="M66118 27105 L66156 27124" /> 
<path d="M66156 27124 L66175 27143" /> 
<path d="M66175 27143 L66194 27181" /> 
<path d="M66194 27181 L66194 27238" /> 
<path d="M66194 27238 L66175 27276" /> 
<path d="M66175 27276 L66156 27295" /> 
<path d="M66156 27295 L66118 27314" /> 
<path d="M66118 27314 L65965 27314" /> 
<g style = "stroke-linecap:round;" > 
<path d="M65965 27314 L65965 27314" /> 
</g><path d="M66327 27105 L66575 27105" /> 
<path d="M66575 27105 L66441 27257" /> 
<path d="M66441 27257 L66499 27257" /> 
<path d="M66499 27257 L66537 27276" /> 
<path d="M66537 27276 L66556 27295" /> 
<path d="M66556 27295 L66575 27333" /> 
<path d="M66575 27333 L66575 27429" /> 
<path d="M66575 27429 L66556 27467" /> 
<path d="M66556 27467 L66537 27486" /> 
<path d="M66537 27486 L66499 27505" /> 
<path d="M66499 27505 L66384 27505" /> 
<path d="M66384 27505 L66346 27486" /> 
<path d="M66346 27486 L66327 27467" /> 
<g style = "stroke-linecap:round;" > 
<path d="M66327 27467 L66327 27467" /> 
</g></g>
<g style="fill:#00A0A0; fill-opacity:0.0; stroke:#00A0A0; stroke-opacity:1.00; stroke-linecap:round; stroke-linejoin:round; stroke-width:150" 
   transform="translate(0.00 0.00) scale(1.00 1.00)">
<ellipse cx="66260" cy="28543" rx="900" ry="900"  /> 
</g>
<g style="fill:#808000; fill-opacity:1.00; stroke:#808000; stroke-opacity:1.00; stroke-linecap:round; stroke-linejoin:round; stroke-width:0" 
   transform="translate(0.00 0.00) scale(1.00 1.00)">
<ellipse cx="65748" cy="12717" rx="997" ry="997"  /> 
</g>
<g style="fill:#FFFFFF; fill-opacity:1.00; stroke:#808000; stroke-opacity:1.00; stroke-linecap:round; stroke-linejoin:round; stroke-width:0" 
   transform="translate(0.00 0.00) scale(1.00 1.00)">
<ellipse cx="65748" cy="12717" rx="206" ry="206"  /> 
</g>
<g style="fill:#FFFFFF; fill-opacity:1.00; stroke:#0000C0; stroke-opacity:1.00; stroke-linecap:round; stroke-linejoin:round; stroke-width:0" 
   transform="translate(0.00 0.00) scale(1.00 1.00)">
<path d="M65746 11517 L65750 11517" /> 
<path d="M65748 11515 L65748 11519" /> 
</g>
<g style="fill:#C0C0C0; fill-opacity:0.0; stroke:#C0C0C0; stroke-opacity:1.00; stroke-linecap:round; stroke-linejoin:round; stroke-width:100" 
   transform="translate(0.00 0.00) scale(1.00 1.00)">
<path d="M65453 11679 L65453 11279" /> 
<path d="M65453 11279 L65606 11279" /> 
<path d="M65606 11279 L65644 11298" /> 
<path d="M65644 11298 L65663 11317" /> 
<path d="M65663 11317 L65682 11355" /> 
<path d="M65682 11355 L65682 11412" /> 
<path d="M65682 11412 L65663 11450" /> 
<path d="M65663 11450 L65644 11469" /> 
<path d="M65644 11469 L65606 11488" /> 
<path d="M65606 11488 L65453 11488" /> 
<g style = "stroke-linecap:round;" > 
<path d="M65453 11488 L65453 11488" /> 
</g><path d="M66025 11412 L66025 11679" /> 
<g style = "stroke-linecap:round;" > 
<path d="M66025 11679 L66025 11679" /> 
</g><path d="M65929 11260 L65834 11546" /> 
<path d="M65834 11546 L66082 11546" /> 
<g style = "stroke-linecap:round;" > 
<path d="M66082 11546 L66082 11546" /> 
</g></g>
<g style="fill:#00A0A0; fill-opacity:0.0; stroke:#00A0A0; stroke-opacity:1.00; stroke-linecap:round; stroke-linejoin:round; stroke-width:150" 
   transform="translate(0.00 0.00) scale(1.00 1.00)">
<ellipse cx="65748" cy="12717" rx="900" ry="900"  /> 
</g>
<g style="fill:#808000; fill-opacity:1.00; stroke:#808000; stroke-opacity:1.00; stroke-linecap:round; stroke-linejoin:round; stroke-width:0" 
   transform="translate(0.00 0.00) scale(1.00 1.00)">
<polygon style="fill-rule:evenodd; " 
points="43346,12359
43346,13145
42560,13145
42560,12359
" /> 
</g>
<g style="fill:#FFFFFF; fill-opacity:1.00; stroke:#808000; stroke-opacity:1.00; stroke-linecap:round; stroke-linejoin:round; stroke-width:0" 
   transform="translate(0.00 0.00) scale(1.00 1.00)">
<ellipse cx="42953" cy="12752" rx="157" ry="157"  /> 
</g>
<g style="fill:#808000; fill-opacity:1.00; stroke:#808000; stroke-opacity:1.00; stroke-linecap:round; stroke-linejoin:round; stroke-width:0" 
   transform="translate(0.00 0.00) scale(1.00 1.00)">
<ellipse cx="42953" cy="15752" rx="393" ry="393"  /> 
</g>
<g style="fill:#FFFFFF; fill-opacity:1.00; stroke:#808000; stroke-opacity:1.00; stroke-linecap:round; stroke-linejoin:round; stroke-width:0" 
   transform="translate(0.00 0.00) scale(1.00 1.00)">
<ellipse cx="42953" cy="15752" rx="157" ry="157"  /> 
</g>
<g style="fill:#FFFFFF; fill-opacity:1.00; stroke:#0000C0; stroke-opacity:1.00; stroke-linecap:round; stroke-linejoin:round; stroke-width:0" 
   transform="translate(0.00 0.00) scale(1.00 1.00)">
<path d="M42951 18252 L42955 18252" /> 
<path d="M42953 18250 L42953 18254" /> 
</g>
<g style="fill:#C0C0C0; fill-opacity:0.0; stroke:#C0C0C0; stroke-opacity:1.00; stroke-linecap:round; stroke-linejoin:round; stroke-width:120" 
   transform="translate(0.00 0.00) scale(1.00 1.00)">
<path d="M42854 18438 L42825 18466" /> 
<path d="M42825 18466 L42739 18495" /> 
<path d="M42739 18495 L42682 18495" /> 
<path d="M42682 18495 L42597 18466" /> 
<path d="M42597 18466 L42539 18409" /> 
<path d="M42539 18409 L42511 18352" /> 
<path d="M42511 18352 L42482 18238" /> 
<path d="M42482 18238 L42482 18152" /> 
<path d="M42482 18152 L42511 18038" /> 
<path d="M42511 18038 L42539 17981" /> 
<path d="M42539 17981 L42597 17923" /> 
<path d="M42597 17923 L42682 17895" /> 
<path d="M42682 17895 L42739 17895" /> 
<path d="M42739 17895 L42825 17923" /> 
<path d="M42825 17923 L42854 17952" /> 
<g style = "stroke-linecap:round;" > 
<path d="M42854 17952 L42854 17952" /> 
</g><path d="M43139 18495 L43254 18495" /> 
<path d="M43254 18495 L43311 18466" /> 
<path d="M43311 18466 L43339 18438" /> 
<path d="M43339 18438 L43397 18352" /> 
<path d="M43397 18352 L43425 18238" /> 
<path d="M43425 18238 L43425 18009" /> 
<path d="M43425 18009 L43397 17952" /> 
<path d="M43397 17952 L43368 17923" /> 
<path d="M43368 17923 L43311 17895" /> 
<path d="M43311 17895 L43197 17895" /> 
<path d="M43197 17895 L43139 17923" /> 
<path d="M43139 17923 L43111 17952" /> 
<path d="M43111 17952 L43082 18009" /> 
<path d="M43082 18009 L43082 18152" /> 
<path d="M43082 18152 L43111 18209" /> 
<path d="M43111 18209 L43139 18238" /> 
<path d="M43139 18238 L43197 18266" /> 
<path d="M43197 18266 L43311 18266" /> 
<path d="M43311 18266 L43368 18238" /> 
<path d="M43368 18238 L43397 18209" /> 
<path d="M43397 18209 L43425 18152" /> 
<g style = "stroke-linecap:round;" > 
<path d="M43425 18152 L43425 18152" /> 
</g></g>
<g style="fill:#C0C0C0; fill-opacity:0.0; stroke:#0000C0; stroke-opacity:1.00; stroke-linecap:round; stroke-linejoin:round; stroke-width:0" 
   transform="translate(0.00 0.00) scale(1.00 1.00)">
<path d="M42951 10252 L42955 10252" /> 
<path d="M42953 10250 L42953 10254" /> 
</g>
<g style="fill:#C0C0C0; fill-opacity:0.0; stroke:#C0C0C0; stroke-opacity:1.00; stroke-linecap:round; stroke-linejoin:round; stroke-width:120" 
   transform="translate(0.00 0.00) scale(1.00 1.00)">
<path d="M43139 10438 L43110 10466" /> 
<path d="M43110 10466 L43024 10495" /> 
<path d="M43024 10495 L42967 10495" /> 
<path d="M42967 10495 L42882 10466" /> 
<path d="M42882 10466 L42824 10409" /> 
<path d="M42824 10409 L42796 10352" /> 
<path d="M42796 10352 L42767 10238" /> 
<path d="M42767 10238 L42767 10152" /> 
<path d="M42767 10152 L42796 10038" /> 
<path d="M42796 10038 L42824 9981" /> 
<path d="M42824 9981 L42882 9923" /> 
<path d="M42882 9923 L42967 9895" /> 
<path d="M42967 9895 L43024 9895" /> 
<path d="M43024 9895 L43110 9923" /> 
<path d="M43110 9923 L43139 9952" /> 
<g style = "stroke-linecap:round;" > 
<path d="M43139 9952 L43139 9952" /> 
</g></g>
<g style="fill:#C0C0C0; fill-opacity:0.0; stroke:#00A0A0; stroke-opacity:1.00; stroke-linecap:round; stroke-linejoin:round; stroke-width:100" 
   transform="translate(0.00 0.00) scale(1.00 1.00)">
<path d="M44303 17052 L43453 17302" /> 
<path d="M41653 17052 L42103 17202" /> 
</g>
<g style="fill:#00A0A0; fill-opacity:0.0; stroke:#00A0A0; stroke-opacity:1.00; stroke-linecap:round; stroke-linejoin:round; stroke-width:100" 
   transform="translate(0.00 0.00) scale(1.00 1.00)">
<ellipse cx="42953" cy="14252" rx="3150" ry="3150"  /> 
<path d="M43753 17202 L42153 17202" /> 
<path d="M41803 17102 L44053 17102" /> 
<path d="M44053 17102 L43703 17102" /> 
<path d="M42403 17352 L43453 17352" /> 
<path d="M43803 17252 L42103 17252" /> 
<path d="M41853 17152 L44053 17152" /> 
<path d="M44053 17152 L44003 17152" /> 
<path d="M41553 17052 L44353 17052" /> 
<path d="M42403 16802 L42053 16802" /> 
</g>
<g style="fill:#808000; fill-opacity:1.00; stroke:#808000; stroke-opacity:1.00; stroke-linecap:round; stroke-linejoin:round; stroke-width:0" 
   transform="translate(0.00 0.00) scale(1.00 1.00)">
<polygon style="fill-rule:evenodd; " 
points="34960,12359
34960,13145
34174,13145
34174,12359
" /> 
</g>
<g style="fill:#FFFFFF; fill-opacity:1.00; stroke:#808000; stroke-opacity:1.00; stroke-linecap:round; stroke-linejoin:round; stroke-width:0" 
   transform="translate(0.00 0.00) scale(1.00 1.00)">
<ellipse cx="34567" cy="12752" rx="157" ry="157"  /> 
</g>
<g style="fill:#808000; fill-opacity:1.00; stroke:#808000; stroke-opacity:1.00; stroke-linecap:round; stroke-linejoin:round; stroke-width:0" 
   transform="translate(0.00 0.00) scale(1.00 1.00)">
<ellipse cx="34567" cy="15752" rx="393" ry="393"  /> 
</g>
<g style="fill:#FFFFFF; fill-opacity:1.00; stroke:#808000; stroke-opacity:1.00; stroke-linecap:round; stroke-linejoin:round; stroke-width:0" 
   transform="translate(0.00 0.00) scale(1.00 1.00)">
<ellipse cx="34567" cy="15752" rx="157" ry="157"  /> 
</g>
<g style="fill:#FFFFFF; fill-opacity:1.00; stroke:#0000C0; stroke-opacity:1.00; stroke-linecap:round; stroke-linejoin:round; stroke-width:0" 
   transform="translate(0.00 0.00) scale(1.00 1.00)">
<path d="M34565 18252 L34569 18252" /> 
<path d="M34567 18250 L34567 18254" /> 
</g>
<g style="fill:#C0C0C0; fill-opacity:0.0; stroke:#C0C0C0; stroke-opacity:1.00; stroke-linecap:round; stroke-linejoin:round; stroke-width:120" 
   transform="translate(0.00 0.00) scale(1.00 1.00)">
<path d="M34182 18438 L34153 18466" /> 
<path d="M34153 18466 L34067 18495" /> 
<path d="M34067 18495 L34010 18495" /> 
<path d="M34010 18495 L33925 18466" /> 
<path d="M33925 18466 L33867 18409" /> 
<path d="M33867 18409 L33839 18352" /> 
<path d="M33839 18352 L33810 18238" /> 
<path d="M33810 18238 L33810 18152" /> 
<path d="M33810 18152 L33839 18038" /> 
<path d="M33839 18038 L33867 17981" /> 
<path d="M33867 17981 L33925 17923" /> 
<path d="M33925 17923 L34010 17895" /> 
<path d="M34010 17895 L34067 17895" /> 
<path d="M34067 17895 L34153 17923" /> 
<path d="M34153 17923 L34182 17952" /> 
<g style = "stroke-linecap:round;" > 
<path d="M34182 17952 L34182 17952" /> 
</g><path d="M34753 18495 L34410 18495" /> 
<g style = "stroke-linecap:round;" > 
<path d="M34410 18495 L34410 18495" /> 
</g><path d="M34582 18495 L34582 17895" /> 
<path d="M34582 17895 L34525 17981" /> 
<path d="M34525 17981 L34467 18038" /> 
<path d="M34467 18038 L34410 18066" /> 
<g style = "stroke-linecap:round;" > 
<path d="M34410 18066 L34410 18066" /> 
</g><path d="M35124 17895 L35181 17895" /> 
<path d="M35181 17895 L35238 17923" /> 
<path d="M35238 17923 L35267 17952" /> 
<path d="M35267 17952 L35296 18009" /> 
<path d="M35296 18009 L35324 18123" /> 
<path d="M35324 18123 L35324 18266" /> 
<path d="M35324 18266 L35296 18381" /> 
<path d="M35296 18381 L35267 18438" /> 
<path d="M35267 18438 L35238 18466" /> 
<path d="M35238 18466 L35181 18495" /> 
<path d="M35181 18495 L35124 18495" /> 
<path d="M35124 18495 L35067 18466" /> 
<path d="M35067 18466 L35038 18438" /> 
<path d="M35038 18438 L35010 18381" /> 
<path d="M35010 18381 L34981 18266" /> 
<path d="M34981 18266 L34981 18123" /> 
<path d="M34981 18123 L35010 18009" /> 
<path d="M35010 18009 L35038 17952" /> 
<path d="M35038 17952 L35067 17923" /> 
<path d="M35067 17923 L35124 17895" /> 
</g>
<g style="fill:#C0C0C0; fill-opacity:0.0; stroke:#0000C0; stroke-opacity:1.00; stroke-linecap:round; stroke-linejoin:round; stroke-width:0" 
   transform="translate(0.00 0.00) scale(1.00 1.00)">
<path d="M34565 10252 L34569 10252" /> 
<path d="M34567 10250 L34567 10254" /> 
</g>
<g style="fill:#C0C0C0; fill-opacity:0.0; stroke:#C0C0C0; stroke-opacity:1.00; stroke-linecap:round; stroke-linejoin:round; stroke-width:120" 
   transform="translate(0.00 0.00) scale(1.00 1.00)">
<path d="M34753 10438 L34724 10466" /> 
<path d="M34724 10466 L34638 10495" /> 
<path d="M34638 10495 L34581 10495" /> 
<path d="M34581 10495 L34496 10466" /> 
<path d="M34496 10466 L34438 10409" /> 
<path d="M34438 10409 L34410 10352" /> 
<path d="M34410 10352 L34381 10238" /> 
<path d="M34381 10238 L34381 10152" /> 
<path d="M34381 10152 L34410 10038" /> 
<path d="M34410 10038 L34438 9981" /> 
<path d="M34438 9981 L34496 9923" /> 
<path d="M34496 9923 L34581 9895" /> 
<path d="M34581 9895 L34638 9895" /> 
<path d="M34638 9895 L34724 9923" /> 
<path d="M34724 9923 L34753 9952" /> 
<g style = "stroke-linecap:round;" > 
<path d="M34753 9952 L34753 9952" /> 
</g></g>
<g style="fill:#C0C0C0; fill-opacity:0.0; stroke:#00A0A0; stroke-opacity:1.00; stroke-linecap:round; stroke-linejoin:round; stroke-width:100" 
   transform="translate(0.00 0.00) scale(1.00 1.00)">
<path d="M35917 17052 L35067 17302" /> 
<path d="M33267 17052 L33717 17202" /> 
</g>
<g style="fill:#00A0A0; fill-opacity:0.0; stroke:#00A0A0; stroke-opacity:1.00; stroke-linecap:round; stroke-linejoin:round; stroke-width:100" 
   transform="translate(0.00 0.00) scale(1.00 1.00)">
<ellipse cx="34567" cy="14252" rx="3150" ry="3150"  /> 
<path d="M35367 17202 L33767 17202" /> 
<path d="M33417 17102 L35667 17102" /> 
<path d="M35667 17102 L35317 17102" /> 
<path d="M34017 17352 L35067 17352" /> 
<path d="M35417 17252 L33717 17252" /> 
<path d="M33467 17152 L35667 17152" /> 
<path d="M35667 17152 L35617 17152" /> 
<path d="M33167 17052 L35967 17052" /> 
<path d="M34017 16802 L33667 16802" /> 
</g>
<g style="fill:#808000; fill-opacity:1.00; stroke:#808000; stroke-opacity:1.00; stroke-linecap:round; stroke-linejoin:round; stroke-width:0" 
   transform="translate(0.00 0.00) scale(1.00 1.00)">
<polygon style="fill-rule:evenodd; " 
points="51850,12320
51850,13106
51064,13106
51064,12320
" /> 
</g>
<g style="fill:#FFFFFF; fill-opacity:1.00; stroke:#808000; stroke-opacity:1.00; stroke-linecap:round; stroke-linejoin:round; stroke-width:0" 
   transform="translate(0.00 0.00) scale(1.00 1.00)">
<ellipse cx="51457" cy="12713" rx="157" ry="157"  /> 
</g>
<g style="fill:#808000; fill-opacity:1.00; stroke:#808000; stroke-opacity:1.00; stroke-linecap:round; stroke-linejoin:round; stroke-width:0" 
   transform="translate(0.00 0.00) scale(1.00 1.00)">
<ellipse cx="51457" cy="15713" rx="393" ry="393"  /> 
</g>
<g style="fill:#FFFFFF; fill-opacity:1.00; stroke:#808000; stroke-opacity:1.00; stroke-linecap:round; stroke-linejoin:round; stroke-width:0" 
   transform="translate(0.00 0.00) scale(1.00 1.00)">
<ellipse cx="51457" cy="15713" rx="157" ry="157"  /> 
</g>
<g style="fill:#FFFFFF; fill-opacity:1.00; stroke:#0000C0; stroke-opacity:1.00; stroke-linecap:round; stroke-linejoin:round; stroke-width:0" 
   transform="translate(0.00 0.00) scale(1.00 1.00)">
<path d="M51455 18213 L51459 18213" /> 
<path d="M51457 18211 L51457 18215" /> 
</g>
<g style="fill:#C0C0C0; fill-opacity:0.0; stroke:#C0C0C0; stroke-opacity:1.00; stroke-linecap:round; stroke-linejoin:round; stroke-width:120" 
   transform="translate(0.00 0.00) scale(1.00 1.00)">
<path d="M51072 18399 L51043 18427" /> 
<path d="M51043 18427 L50957 18456" /> 
<path d="M50957 18456 L50900 18456" /> 
<path d="M50900 18456 L50815 18427" /> 
<path d="M50815 18427 L50757 18370" /> 
<path d="M50757 18370 L50729 18313" /> 
<path d="M50729 18313 L50700 18199" /> 
<path d="M50700 18199 L50700 18113" /> 
<path d="M50700 18113 L50729 17999" /> 
<path d="M50729 17999 L50757 17942" /> 
<path d="M50757 17942 L50815 17884" /> 
<path d="M50815 17884 L50900 17856" /> 
<path d="M50900 17856 L50957 17856" /> 
<path d="M50957 17856 L51043 17884" /> 
<path d="M51043 17884 L51072 17913" /> 
<g style = "stroke-linecap:round;" > 
<path d="M51072 17913 L51072 17913" /> 
</g><path d="M51643 18456 L51300 18456" /> 
<g style = "stroke-linecap:round;" > 
<path d="M51300 18456 L51300 18456" /> 
</g><path d="M51472 18456 L51472 17856" /> 
<path d="M51472 17856 L51415 17942" /> 
<path d="M51415 17942 L51357 17999" /> 
<path d="M51357 17999 L51300 18027" /> 
<g style = "stroke-linecap:round;" > 
<path d="M51300 18027 L51300 18027" /> 
</g><path d="M52214 18456 L51871 18456" /> 
<g style = "stroke-linecap:round;" > 
<path d="M51871 18456 L51871 18456" /> 
</g><path d="M52043 18456 L52043 17856" /> 
<path d="M52043 17856 L51986 17942" /> 
<path d="M51986 17942 L51928 17999" /> 
<path d="M51928 17999 L51871 18027" /> 
<g style = "stroke-linecap:round;" > 
<path d="M51871 18027 L51871 18027" /> 
</g></g>
<g style="fill:#C0C0C0; fill-opacity:0.0; stroke:#0000C0; stroke-opacity:1.00; stroke-linecap:round; stroke-linejoin:round; stroke-width:0" 
   transform="translate(0.00 0.00) scale(1.00 1.00)">
<path d="M51455 10213 L51459 10213" /> 
<path d="M51457 10211 L51457 10215" /> 
</g>
<g style="fill:#C0C0C0; fill-opacity:0.0; stroke:#C0C0C0; stroke-opacity:1.00; stroke-linecap:round; stroke-linejoin:round; stroke-width:120" 
   transform="translate(0.00 0.00) scale(1.00 1.00)">
<path d="M51643 10399 L51614 10427" /> 
<path d="M51614 10427 L51528 10456" /> 
<path d="M51528 10456 L51471 10456" /> 
<path d="M51471 10456 L51386 10427" /> 
<path d="M51386 10427 L51328 10370" /> 
<path d="M51328 10370 L51300 10313" /> 
<path d="M51300 10313 L51271 10199" /> 
<path d="M51271 10199 L51271 10113" /> 
<path d="M51271 10113 L51300 9999" /> 
<path d="M51300 9999 L51328 9942" /> 
<path d="M51328 9942 L51386 9884" /> 
<path d="M51386 9884 L51471 9856" /> 
<path d="M51471 9856 L51528 9856" /> 
<path d="M51528 9856 L51614 9884" /> 
<path d="M51614 9884 L51643 9913" /> 
<g style = "stroke-linecap:round;" > 
<path d="M51643 9913 L51643 9913" /> 
</g></g>
<g style="fill:#C0C0C0; fill-opacity:0.0; stroke:#00A0A0; stroke-opacity:1.00; stroke-linecap:round; stroke-linejoin:round; stroke-width:100" 
   transform="translate(0.00 0.00) scale(1.00 1.00)">
<path d="M52807 17013 L51957 17263" /> 
<path d="M50157 17013 L50607 17163" /> 
</g>
<g style="fill:#00A0A0; fill-opacity:0.0; stroke:#00A0A0; stroke-opacity:1.00; stroke-linecap:round; stroke-linejoin:round; stroke-width:100" 
   transform="translate(0.00 0.00) scale(1.00 1.00)">
<ellipse cx="51457" cy="14213" rx="3150" ry="3150"  /> 
<path d="M52257 17163 L50657 17163" /> 
<path d="M50307 17063 L52557 17063" /> 
<path d="M52557 17063 L52207 17063" /> 
<path d="M50907 17313 L51957 17313" /> 
<path d="M52307 17213 L50607 17213" /> 
<path d="M50357 17113 L52557 17113" /> 
<path d="M52557 17113 L52507 17113" /> 
<path d="M50057 17013 L52857 17013" /> 
<path d="M50907 16763 L50557 16763" /> 
</g>
<g style="fill:#808000; fill-opacity:1.00; stroke:#808000; stroke-opacity:1.00; stroke-linecap:round; stroke-linejoin:round; stroke-width:0" 
   transform="translate(0.00 0.00) scale(1.00 1.00)">
<polygon style="fill-rule:evenodd; " 
points="59960,12320
59960,13106
59174,13106
59174,12320
" /> 
</g>
<g style="fill:#FFFFFF; fill-opacity:1.00; stroke:#808000; stroke-opacity:1.00; stroke-linecap:round; stroke-linejoin:round; stroke-width:0" 
   transform="translate(0.00 0.00) scale(1.00 1.00)">
<ellipse cx="59567" cy="12713" rx="157" ry="157"  /> 
</g>
<g style="fill:#808000; fill-opacity:1.00; stroke:#808000; stroke-opacity:1.00; stroke-linecap:round; stroke-linejoin:round; stroke-width:0" 
   transform="translate(0.00 0.00) scale(1.00 1.00)">
<ellipse cx="59567" cy="15713" rx="393" ry="393"  /> 
</g>
<g style="fill:#FFFFFF; fill-opacity:1.00; stroke:#808000; stroke-opacity:1.00; stroke-linecap:round; stroke-linejoin:round; stroke-width:0" 
   transform="translate(0.00 0.00) scale(1.00 1.00)">
<ellipse cx="59567" cy="15713" rx="157" ry="157"  /> 
</g>
<g style="fill:#FFFFFF; fill-opacity:1.00; stroke:#0000C0; stroke-opacity:1.00; stroke-linecap:round; stroke-linejoin:round; stroke-width:0" 
   transform="translate(0.00 0.00) scale(1.00 1.00)">
<path d="M59565 18213 L59569 18213" /> 
<path d="M59567 18211 L59567 18215" /> 
</g>
<g style="fill:#C0C0C0; fill-opacity:0.0; stroke:#C0C0C0; stroke-opacity:1.00; stroke-linecap:round; stroke-linejoin:round; stroke-width:120" 
   transform="translate(0.00 0.00) scale(1.00 1.00)">
<path d="M59182 18399 L59153 18427" /> 
<path d="M59153 18427 L59067 18456" /> 
<path d="M59067 18456 L59010 18456" /> 
<path d="M59010 18456 L58925 18427" /> 
<path d="M58925 18427 L58867 18370" /> 
<path d="M58867 18370 L58839 18313" /> 
<path d="M58839 18313 L58810 18199" /> 
<path d="M58810 18199 L58810 18113" /> 
<path d="M58810 18113 L58839 17999" /> 
<path d="M58839 17999 L58867 17942" /> 
<path d="M58867 17942 L58925 17884" /> 
<path d="M58925 17884 L59010 17856" /> 
<path d="M59010 17856 L59067 17856" /> 
<path d="M59067 17856 L59153 17884" /> 
<path d="M59153 17884 L59182 17913" /> 
<g style = "stroke-linecap:round;" > 
<path d="M59182 17913 L59182 17913" /> 
</g><path d="M59753 18456 L59410 18456" /> 
<g style = "stroke-linecap:round;" > 
<path d="M59410 18456 L59410 18456" /> 
</g><path d="M59582 18456 L59582 17856" /> 
<path d="M59582 17856 L59525 17942" /> 
<path d="M59525 17942 L59467 17999" /> 
<path d="M59467 17999 L59410 18027" /> 
<g style = "stroke-linecap:round;" > 
<path d="M59410 18027 L59410 18027" /> 
</g><path d="M59981 17913 L60010 17884" /> 
<path d="M60010 17884 L60067 17856" /> 
<path d="M60067 17856 L60210 17856" /> 
<path d="M60210 17856 L60267 17884" /> 
<path d="M60267 17884 L60296 17913" /> 
<path d="M60296 17913 L60324 17970" /> 
<path d="M60324 17970 L60324 18027" /> 
<path d="M60324 18027 L60296 18113" /> 
<path d="M60296 18113 L59953 18456" /> 
<path d="M59953 18456 L60324 18456" /> 
<g style = "stroke-linecap:round;" > 
<path d="M60324 18456 L60324 18456" /> 
</g></g>
<g style="fill:#C0C0C0; fill-opacity:0.0; stroke:#0000C0; stroke-opacity:1.00; stroke-linecap:round; stroke-linejoin:round; stroke-width:0" 
   transform="translate(0.00 0.00) scale(1.00 1.00)">
<path d="M59565 10213 L59569 10213" /> 
<path d="M59567 10211 L59567 10215" /> 
</g>
<g style="fill:#C0C0C0; fill-opacity:0.0; stroke:#C0C0C0; stroke-opacity:1.00; stroke-linecap:round; stroke-linejoin:round; stroke-width:120" 
   transform="translate(0.00 0.00) scale(1.00 1.00)">
<path d="M59753 10399 L59724 10427" /> 
<path d="M59724 10427 L59638 10456" /> 
<path d="M59638 10456 L59581 10456" /> 
<path d="M59581 10456 L59496 10427" /> 
<path d="M59496 10427 L59438 10370" /> 
<path d="M59438 10370 L59410 10313" /> 
<path d="M59410 10313 L59381 10199" /> 
<path d="M59381 10199 L59381 10113" /> 
<path d="M59381 10113 L59410 9999" /> 
<path d="M59410 9999 L59438 9942" /> 
<path d="M59438 9942 L59496 9884" /> 
<path d="M59496 9884 L59581 9856" /> 
<path d="M59581 9856 L59638 9856" /> 
<path d="M59638 9856 L59724 9884" /> 
<path d="M59724 9884 L59753 9913" /> 
<g style = "stroke-linecap:round;" > 
<path d="M59753 9913 L59753 9913" /> 
</g></g>
<g style="fill:#C0C0C0; fill-opacity:0.0; stroke:#00A0A0; stroke-opacity:1.00; stroke-linecap:round; stroke-linejoin:round; stroke-width:100" 
   transform="translate(0.00 0.00) scale(1.00 1.00)">
<path d="M60917 17013 L60067 17263" /> 
<path d="M58267 17013 L58717 17163" /> 
</g>
<g style="fill:#00A0A0; fill-opacity:0.0; stroke:#00A0A0; stroke-opacity:1.00; stroke-linecap:round; stroke-linejoin:round; stroke-width:100" 
   transform="translate(0.00 0.00) scale(1.00 1.00)">
<ellipse cx="59567" cy="14213" rx="3150" ry="3150"  /> 
<path d="M60367 17163 L58767 17163" /> 
<path d="M58417 17063 L60667 17063" /> 
<path d="M60667 17063 L60317 17063" /> 
<path d="M59017 17313 L60067 17313" /> 
<path d="M60417 17213 L58717 17213" /> 
<path d="M58467 17113 L60667 17113" /> 
<path d="M60667 17113 L60617 17113" /> 
<path d="M58167 17013 L60967 17013" /> 
<path d="M59017 16763 L58667 16763" /> 
</g>
<g style="fill:#808000; fill-opacity:1.00; stroke:#808000; stroke-opacity:1.00; stroke-linecap:round; stroke-linejoin:round; stroke-width:0" 
   transform="translate(0.00 0.00) scale(1.00 1.00)">
<polygon style="fill-rule:evenodd; " 
points="34960,25194
34960,25980
34174,25980
34174,25194
" /> 
</g>
<g style="fill:#FFFFFF; fill-opacity:1.00; stroke:#808000; stroke-opacity:1.00; stroke-linecap:round; stroke-linejoin:round; stroke-width:0" 
   transform="translate(0.00 0.00) scale(1.00 1.00)">
<ellipse cx="34567" cy="25587" rx="157" ry="157"  /> 
</g>
<g style="fill:#808000; fill-opacity:1.00; stroke:#808000; stroke-opacity:1.00; stroke-linecap:round; stroke-linejoin:round; stroke-width:0" 
   transform="translate(0.00 0.00) scale(1.00 1.00)">
<ellipse cx="34567" cy="28587" rx="393" ry="393"  /> 
</g>
<g style="fill:#FFFFFF; fill-opacity:1.00; stroke:#808000; stroke-opacity:1.00; stroke-linecap:round; stroke-linejoin:round; stroke-width:0" 
   transform="translate(0.00 0.00) scale(1.00 1.00)">
<ellipse cx="34567" cy="28587" rx="157" ry="157"  /> 
</g>
<g style="fill:#FFFFFF; fill-opacity:1.00; stroke:#0000C0; stroke-opacity:1.00; stroke-linecap:round; stroke-linejoin:round; stroke-width:0" 
   transform="translate(0.00 0.00) scale(1.00 1.00)">
<path d="M34565 31087 L34569 31087" /> 
<path d="M34567 31085 L34567 31089" /> 
</g>
<g style="fill:#C0C0C0; fill-opacity:0.0; stroke:#C0C0C0; stroke-opacity:1.00; stroke-linecap:round; stroke-linejoin:round; stroke-width:120" 
   transform="translate(0.00 0.00) scale(1.00 1.00)">
<path d="M34468 31273 L34439 31301" /> 
<path d="M34439 31301 L34353 31330" /> 
<path d="M34353 31330 L34296 31330" /> 
<path d="M34296 31330 L34211 31301" /> 
<path d="M34211 31301 L34153 31244" /> 
<path d="M34153 31244 L34125 31187" /> 
<path d="M34125 31187 L34096 31073" /> 
<path d="M34096 31073 L34096 30987" /> 
<path d="M34096 30987 L34125 30873" /> 
<path d="M34125 30873 L34153 30816" /> 
<path d="M34153 30816 L34211 30758" /> 
<path d="M34211 30758 L34296 30730" /> 
<path d="M34296 30730 L34353 30730" /> 
<path d="M34353 30730 L34439 30758" /> 
<path d="M34439 30758 L34468 30787" /> 
<g style = "stroke-linecap:round;" > 
<path d="M34468 30787 L34468 30787" /> 
</g><path d="M35011 30730 L34725 30730" /> 
<path d="M34725 30730 L34696 31016" /> 
<path d="M34696 31016 L34725 30987" /> 
<path d="M34725 30987 L34782 30958" /> 
<path d="M34782 30958 L34925 30958" /> 
<path d="M34925 30958 L34982 30987" /> 
<path d="M34982 30987 L35011 31016" /> 
<path d="M35011 31016 L35039 31073" /> 
<path d="M35039 31073 L35039 31216" /> 
<path d="M35039 31216 L35011 31273" /> 
<path d="M35011 31273 L34982 31301" /> 
<path d="M34982 31301 L34925 31330" /> 
<path d="M34925 31330 L34782 31330" /> 
<path d="M34782 31330 L34725 31301" /> 
<path d="M34725 31301 L34696 31273" /> 
<g style = "stroke-linecap:round;" > 
<path d="M34696 31273 L34696 31273" /> 
</g></g>
<g style="fill:#C0C0C0; fill-opacity:0.0; stroke:#0000C0; stroke-opacity:1.00; stroke-linecap:round; stroke-linejoin:round; stroke-width:0" 
   transform="translate(0.00 0.00) scale(1.00 1.00)">
<path d="M34565 23087 L34569 23087" /> 
<path d="M34567 23085 L34567 23089" /> 
</g>
<g style="fill:#C0C0C0; fill-opacity:0.0; stroke:#C0C0C0; stroke-opacity:1.00; stroke-linecap:round; stroke-linejoin:round; stroke-width:120" 
   transform="translate(0.00 0.00) scale(1.00 1.00)">
<path d="M34753 23273 L34724 23301" /> 
<path d="M34724 23301 L34638 23330" /> 
<path d="M34638 23330 L34581 23330" /> 
<path d="M34581 23330 L34496 23301" /> 
<path d="M34496 23301 L34438 23244" /> 
<path d="M34438 23244 L34410 23187" /> 
<path d="M34410 23187 L34381 23073" /> 
<path d="M34381 23073 L34381 22987" /> 
<path d="M34381 22987 L34410 22873" /> 
<path d="M34410 22873 L34438 22816" /> 
<path d="M34438 22816 L34496 22758" /> 
<path d="M34496 22758 L34581 22730" /> 
<path d="M34581 22730 L34638 22730" /> 
<path d="M34638 22730 L34724 22758" /> 
<path d="M34724 22758 L34753 22787" /> 
<g style = "stroke-linecap:round;" > 
<path d="M34753 22787 L34753 22787" /> 
</g></g>
<g style="fill:#C0C0C0; fill-opacity:0.0; stroke:#00A0A0; stroke-opacity:1.00; stroke-linecap:round; stroke-linejoin:round; stroke-width:100" 
   transform="translate(0.00 0.00) scale(1.00 1.00)">
<path d="M35917 29887 L35067 30137" /> 
<path d="M33267 29887 L33717 30037" /> 
</g>
<g style="fill:#00A0A0; fill-opacity:0.0; stroke:#00A0A0; stroke-opacity:1.00; stroke-linecap:round; stroke-linejoin:round; stroke-width:100" 
   transform="translate(0.00 0.00) scale(1.00 1.00)">
<ellipse cx="34567" cy="27087" rx="3150" ry="3150"  /> 
<path d="M35367 30037 L33767 30037" /> 
<path d="M33417 29937 L35667 29937" /> 
<path d="M35667 29937 L35317 29937" /> 
<path d="M34017 30187 L35067 30187" /> 
<path d="M35417 30087 L33717 30087" /> 
<path d="M33467 29987 L35667 29987" /> 
<path d="M35667 29987 L35617 29987" /> 
<path d="M33167 29887 L35967 29887" /> 
<path d="M34017 29637 L33667 29637" /> 
</g>
<g style="fill:#808000; fill-opacity:1.00; stroke:#808000; stroke-opacity:1.00; stroke-linecap:round; stroke-linejoin:round; stroke-width:0" 
   transform="translate(0.00 0.00) scale(1.00 1.00)">
<polygon style="fill-rule:evenodd; " 
points="51889,25194
51889,25980
51103,25980
51103,25194
" /> 
</g>
<g style="fill:#FFFFFF; fill-opacity:1.00; stroke:#808000; stroke-opacity:1.00; stroke-linecap:round; stroke-linejoin:round; stroke-width:0" 
   transform="translate(0.00 0.00) scale(1.00 1.00)">
<ellipse cx="51496" cy="25587" rx="157" ry="157"  /> 
</g>
<g style="fill:#808000; fill-opacity:1.00; stroke:#808000; stroke-opacity:1.00; stroke-linecap:round; stroke-linejoin:round; stroke-width:0" 
   transform="translate(0.00 0.00) scale(1.00 1.00)">
<ellipse cx="51496" cy="28587" rx="393" ry="393"  /> 
</g>
<g style="fill:#FFFFFF; fill-opacity:1.00; stroke:#808000; stroke-opacity:1.00; stroke-linecap:round; stroke-linejoin:round; stroke-width:0" 
   transform="translate(0.00 0.00) scale(1.00 1.00)">
<ellipse cx="51496" cy="28587" rx="157" ry="157"  /> 
</g>
<g style="fill:#FFFFFF; fill-opacity:1.00; stroke:#0000C0; stroke-opacity:1.00; stroke-linecap:round; stroke-linejoin:round; stroke-width:0" 
   transform="translate(0.00 0.00) scale(1.00 1.00)">
<path d="M51494 31087 L51498 31087" /> 
<path d="M51496 31085 L51496 31089" /> 
</g>
<g style="fill:#C0C0C0; fill-opacity:0.0; stroke:#C0C0C0; stroke-opacity:1.00; stroke-linecap:round; stroke-linejoin:round; stroke-width:120" 
   transform="translate(0.00 0.00) scale(1.00 1.00)">
<path d="M51397 31273 L51368 31301" /> 
<path d="M51368 31301 L51282 31330" /> 
<path d="M51282 31330 L51225 31330" /> 
<path d="M51225 31330 L51140 31301" /> 
<path d="M51140 31301 L51082 31244" /> 
<path d="M51082 31244 L51054 31187" /> 
<path d="M51054 31187 L51025 31073" /> 
<path d="M51025 31073 L51025 30987" /> 
<path d="M51025 30987 L51054 30873" /> 
<path d="M51054 30873 L51082 30816" /> 
<path d="M51082 30816 L51140 30758" /> 
<path d="M51140 30758 L51225 30730" /> 
<path d="M51225 30730 L51282 30730" /> 
<path d="M51282 30730 L51368 30758" /> 
<path d="M51368 30758 L51397 30787" /> 
<g style = "stroke-linecap:round;" > 
<path d="M51397 30787 L51397 30787" /> 
</g><path d="M51911 30730 L51797 30730" /> 
<path d="M51797 30730 L51740 30758" /> 
<path d="M51740 30758 L51711 30787" /> 
<path d="M51711 30787 L51654 30873" /> 
<path d="M51654 30873 L51625 30987" /> 
<path d="M51625 30987 L51625 31216" /> 
<path d="M51625 31216 L51654 31273" /> 
<path d="M51654 31273 L51682 31301" /> 
<path d="M51682 31301 L51740 31330" /> 
<path d="M51740 31330 L51854 31330" /> 
<path d="M51854 31330 L51911 31301" /> 
<path d="M51911 31301 L51940 31273" /> 
<path d="M51940 31273 L51968 31216" /> 
<path d="M51968 31216 L51968 31073" /> 
<path d="M51968 31073 L51940 31016" /> 
<path d="M51940 31016 L51911 30987" /> 
<path d="M51911 30987 L51854 30958" /> 
<path d="M51854 30958 L51740 30958" /> 
<path d="M51740 30958 L51682 30987" /> 
<path d="M51682 30987 L51654 31016" /> 
<path d="M51654 31016 L51625 31073" /> 
<g style = "stroke-linecap:round;" > 
<path d="M51625 31073 L51625 31073" /> 
</g></g>
<g style="fill:#C0C0C0; fill-opacity:0.0; stroke:#0000C0; stroke-opacity:1.00; stroke-linecap:round; stroke-linejoin:round; stroke-width:0" 
   transform="translate(0.00 0.00) scale(1.00 1.00)">
<path d="M51494 23087 L51498 23087" /> 
<path d="M51496 23085 L51496 23089" /> 
</g>
<g style="fill:#C0C0C0; fill-opacity:0.0; stroke:#C0C0C0; stroke-opacity:1.00; stroke-linecap:round; stroke-linejoin:round; stroke-width:120" 
   transform="translate(0.00 0.00) scale(1.00 1.00)">
<path d="M51682 23273 L51653 23301" /> 
<path d="M51653 23301 L51567 23330" /> 
<path d="M51567 23330 L51510 23330" /> 
<path d="M51510 23330 L51425 23301" /> 
<path d="M51425 23301 L51367 23244" /> 
<path d="M51367 23244 L51339 23187" /> 
<path d="M51339 23187 L51310 23073" /> 
<path d="M51310 23073 L51310 22987" /> 
<path d="M51310 22987 L51339 22873" /> 
<path d="M51339 22873 L51367 22816" /> 
<path d="M51367 22816 L51425 22758" /> 
<path d="M51425 22758 L51510 22730" /> 
<path d="M51510 22730 L51567 22730" /> 
<path d="M51567 22730 L51653 22758" /> 
<path d="M51653 22758 L51682 22787" /> 
<g style = "stroke-linecap:round;" > 
<path d="M51682 22787 L51682 22787" /> 
</g></g>
<g style="fill:#C0C0C0; fill-opacity:0.0; stroke:#00A0A0; stroke-opacity:1.00; stroke-linecap:round; stroke-linejoin:round; stroke-width:100" 
   transform="translate(0.00 0.00) scale(1.00 1.00)">
<path d="M52846 29887 L51996 30137" /> 
<path d="M50196 29887 L50646 30037" /> 
</g>
<g style="fill:#00A0A0; fill-opacity:0.0; stroke:#00A0A0; stroke-opacity:1.00; stroke-linecap:round; stroke-linejoin:round; stroke-width:100" 
   transform="translate(0.00 0.00) scale(1.00 1.00)">
<ellipse cx="51496" cy="27087" rx="3150" ry="3150"  /> 
<path d="M52296 30037 L50696 30037" /> 
<path d="M50346 29937 L52596 29937" /> 
<path d="M52596 29937 L52246 29937" /> 
<path d="M50946 30187 L51996 30187" /> 
<path d="M52346 30087 L50646 30087" /> 
<path d="M50396 29987 L52596 29987" /> 
<path d="M52596 29987 L52546 29987" /> 
<path d="M50096 29887 L52896 29887" /> 
<path d="M50946 29637 L50596 29637" /> 
</g>
<g style="fill:#808000; fill-opacity:1.00; stroke:#808000; stroke-opacity:1.00; stroke-linecap:round; stroke-linejoin:round; stroke-width:0" 
   transform="translate(0.00 0.00) scale(1.00 1.00)">
<polygon style="fill-rule:evenodd; " 
points="59921,25233
59921,26019
59135,26019
59135,25233
" /> 
</g>
<g style="fill:#FFFFFF; fill-opacity:1.00; stroke:#808000; stroke-opacity:1.00; stroke-linecap:round; stroke-linejoin:round; stroke-width:0" 
   transform="translate(0.00 0.00) scale(1.00 1.00)">
<ellipse cx="59528" cy="25626" rx="157" ry="157"  /> 
</g>
<g style="fill:#808000; fill-opacity:1.00; stroke:#808000; stroke-opacity:1.00; stroke-linecap:round; stroke-linejoin:round; stroke-width:0" 
   transform="translate(0.00 0.00) scale(1.00 1.00)">
<ellipse cx="59528" cy="28626" rx="393" ry="393"  /> 
</g>
<g style="fill:#FFFFFF; fill-opacity:1.00; stroke:#808000; stroke-opacity:1.00; stroke-linecap:round; stroke-linejoin:round; stroke-width:0" 
   transform="translate(0.00 0.00) scale(1.00 1.00)">
<ellipse cx="59528" cy="28626" rx="157" ry="157"  /> 
</g>
<g style="fill:#FFFFFF; fill-opacity:1.00; stroke:#0000C0; stroke-opacity:1.00; stroke-linecap:round; stroke-linejoin:round; stroke-width:0" 
   transform="translate(0.00 0.00) scale(1.00 1.00)">
<path d="M59526 31126 L59530 31126" /> 
<path d="M59528 31124 L59528 31128" /> 
</g>
<g style="fill:#C0C0C0; fill-opacity:0.0; stroke:#C0C0C0; stroke-opacity:1.00; stroke-linecap:round; stroke-linejoin:round; stroke-width:120" 
   transform="translate(0.00 0.00) scale(1.00 1.00)">
<path d="M59429 31312 L59400 31340" /> 
<path d="M59400 31340 L59314 31369" /> 
<path d="M59314 31369 L59257 31369" /> 
<path d="M59257 31369 L59172 31340" /> 
<path d="M59172 31340 L59114 31283" /> 
<path d="M59114 31283 L59086 31226" /> 
<path d="M59086 31226 L59057 31112" /> 
<path d="M59057 31112 L59057 31026" /> 
<path d="M59057 31026 L59086 30912" /> 
<path d="M59086 30912 L59114 30855" /> 
<path d="M59114 30855 L59172 30797" /> 
<path d="M59172 30797 L59257 30769" /> 
<path d="M59257 30769 L59314 30769" /> 
<path d="M59314 30769 L59400 30797" /> 
<path d="M59400 30797 L59429 30826" /> 
<g style = "stroke-linecap:round;" > 
<path d="M59429 30826 L59429 30826" /> 
</g><path d="M59629 30769 L60029 30769" /> 
<path d="M60029 30769 L59772 31369" /> 
<g style = "stroke-linecap:round;" > 
<path d="M59772 31369 L59772 31369" /> 
</g></g>
<g style="fill:#C0C0C0; fill-opacity:0.0; stroke:#0000C0; stroke-opacity:1.00; stroke-linecap:round; stroke-linejoin:round; stroke-width:0" 
   transform="translate(0.00 0.00) scale(1.00 1.00)">
<path d="M59526 23126 L59530 23126" /> 
<path d="M59528 23124 L59528 23128" /> 
</g>
<g style="fill:#C0C0C0; fill-opacity:0.0; stroke:#C0C0C0; stroke-opacity:1.00; stroke-linecap:round; stroke-linejoin:round; stroke-width:120" 
   transform="translate(0.00 0.00) scale(1.00 1.00)">
<path d="M59714 23312 L59685 23340" /> 
<path d="M59685 23340 L59599 23369" /> 
<path d="M59599 23369 L59542 23369" /> 
<path d="M59542 23369 L59457 23340" /> 
<path d="M59457 23340 L59399 23283" /> 
<path d="M59399 23283 L59371 23226" /> 
<path d="M59371 23226 L59342 23112" /> 
<path d="M59342 23112 L59342 23026" /> 
<path d="M59342 23026 L59371 22912" /> 
<path d="M59371 22912 L59399 22855" /> 
<path d="M59399 22855 L59457 22797" /> 
<path d="M59457 22797 L59542 22769" /> 
<path d="M59542 22769 L59599 22769" /> 
<path d="M59599 22769 L59685 22797" /> 
<path d="M59685 22797 L59714 22826" /> 
<g style = "stroke-linecap:round;" > 
<path d="M59714 22826 L59714 22826" /> 
</g></g>
<g style="fill:#C0C0C0; fill-opacity:0.0; stroke:#00A0A0; stroke-opacity:1.00; stroke-linecap:round; stroke-linejoin:round; stroke-width:100" 
   transform="translate(0.00 0.00) scale(1.00 1.00)">
<path d="M60878 29926 L60028 30176" /> 
<path d="M58228 29926 L58678 30076" /> 
</g>
<g style="fill:#00A0A0; fill-opacity:0.0; stroke:#00A0A0; stroke-opacity:1.00; stroke-linecap:round; stroke-linejoin:round; stroke-width:100" 
   transform="translate(0.00 0.00) scale(1.00 1.00)">
<ellipse cx="59528" cy="27126" rx="3150" ry="3150"  /> 
<path d="M60328 30076 L58728 30076" /> 
<path d="M58378 29976 L60628 29976" /> 
<path d="M60628 29976 L60278 29976" /> 
<path d="M58978 30226 L60028 30226" /> 
<path d="M60378 30126 L58678 30126" /> 
<path d="M58428 30026 L60628 30026" /> 
<path d="M60628 30026 L60578 30026" /> 
<path d="M58128 29926 L60928 29926" /> 
<path d="M58978 29676 L58628 29676" /> 
</g>
<g style="fill:#808000; fill-opacity:1.00; stroke:#808000; stroke-opacity:1.00; stroke-linecap:round; stroke-linejoin:round; stroke-width:0" 
   transform="translate(0.00 0.00) scale(1.00 1.00)">
<polygon style="fill-rule:evenodd; " 
points="43385,25194
43385,25980
42599,25980
42599,25194
" /> 
</g>
<g style="fill:#FFFFFF; fill-opacity:1.00; stroke:#808000; stroke-opacity:1.00; stroke-linecap:round; stroke-linejoin:round; stroke-width:0" 
   transform="translate(0.00 0.00) scale(1.00 1.00)">
<ellipse cx="42992" cy="25587" rx="157" ry="157"  /> 
</g>
<g style="fill:#808000; fill-opacity:1.00; stroke:#808000; stroke-opacity:1.00; stroke-linecap:round; stroke-linejoin:round; stroke-width:0" 
   transform="translate(0.00 0.00) scale(1.00 1.00)">
<ellipse cx="42992" cy="28587" rx="393" ry="393"  /> 
</g>
<g style="fill:#FFFFFF; fill-opacity:1.00; stroke:#808000; stroke-opacity:1.00; stroke-linecap:round; stroke-linejoin:round; stroke-width:0" 
   transform="translate(0.00 0.00) scale(1.00 1.00)">
<ellipse cx="42992" cy="28587" rx="157" ry="157"  /> 
</g>
<g style="fill:#FFFFFF; fill-opacity:1.00; stroke:#0000C0; stroke-opacity:1.00; stroke-linecap:round; stroke-linejoin:round; stroke-width:0" 
   transform="translate(0.00 0.00) scale(1.00 1.00)">
<path d="M42990 31087 L42994 31087" /> 
<path d="M42992 31085 L42992 31089" /> 
</g>
<g style="fill:#C0C0C0; fill-opacity:0.0; stroke:#C0C0C0; stroke-opacity:1.00; stroke-linecap:round; stroke-linejoin:round; stroke-width:120" 
   transform="translate(0.00 0.00) scale(1.00 1.00)">
<path d="M42893 31273 L42864 31301" /> 
<path d="M42864 31301 L42778 31330" /> 
<path d="M42778 31330 L42721 31330" /> 
<path d="M42721 31330 L42636 31301" /> 
<path d="M42636 31301 L42578 31244" /> 
<path d="M42578 31244 L42550 31187" /> 
<path d="M42550 31187 L42521 31073" /> 
<path d="M42521 31073 L42521 30987" /> 
<path d="M42521 30987 L42550 30873" /> 
<path d="M42550 30873 L42578 30816" /> 
<path d="M42578 30816 L42636 30758" /> 
<path d="M42636 30758 L42721 30730" /> 
<path d="M42721 30730 L42778 30730" /> 
<path d="M42778 30730 L42864 30758" /> 
<path d="M42864 30758 L42893 30787" /> 
<g style = "stroke-linecap:round;" > 
<path d="M42893 30787 L42893 30787" /> 
</g><path d="M43236 30987 L43178 30958" /> 
<path d="M43178 30958 L43150 30930" /> 
<path d="M43150 30930 L43121 30873" /> 
<path d="M43121 30873 L43121 30844" /> 
<path d="M43121 30844 L43150 30787" /> 
<path d="M43150 30787 L43178 30758" /> 
<path d="M43178 30758 L43236 30730" /> 
<path d="M43236 30730 L43350 30730" /> 
<path d="M43350 30730 L43407 30758" /> 
<path d="M43407 30758 L43436 30787" /> 
<path d="M43436 30787 L43464 30844" /> 
<path d="M43464 30844 L43464 30873" /> 
<path d="M43464 30873 L43436 30930" /> 
<path d="M43436 30930 L43407 30958" /> 
<path d="M43407 30958 L43350 30987" /> 
<path d="M43350 30987 L43236 30987" /> 
<path d="M43236 30987 L43178 31016" /> 
<path d="M43178 31016 L43150 31044" /> 
<path d="M43150 31044 L43121 31101" /> 
<path d="M43121 31101 L43121 31216" /> 
<path d="M43121 31216 L43150 31273" /> 
<path d="M43150 31273 L43178 31301" /> 
<path d="M43178 31301 L43236 31330" /> 
<path d="M43236 31330 L43350 31330" /> 
<path d="M43350 31330 L43407 31301" /> 
<path d="M43407 31301 L43436 31273" /> 
<path d="M43436 31273 L43464 31216" /> 
<path d="M43464 31216 L43464 31101" /> 
<path d="M43464 31101 L43436 31044" /> 
<path d="M43436 31044 L43407 31016" /> 
<path d="M43407 31016 L43350 30987" /> 
<g style = "stroke-linecap:round;" > 
<path d="M43350 30987 L43350 30987" /> 
</g></g>
<g style="fill:#C0C0C0; fill-opacity:0.0; stroke:#0000C0; stroke-opacity:1.00; stroke-linecap:round; stroke-linejoin:round; stroke-width:0" 
   transform="translate(0.00 0.00) scale(1.00 1.00)">
<path d="M42990 23087 L42994 23087" /> 
<path d="M42992 23085 L42992 23089" /> 
</g>
<g style="fill:#C0C0C0; fill-opacity:0.0; stroke:#C0C0C0; stroke-opacity:1.00; stroke-linecap:round; stroke-linejoin:round; stroke-width:120" 
   transform="translate(0.00 0.00) scale(1.00 1.00)">
<path d="M43178 23273 L43149 23301" /> 
<path d="M43149 23301 L43063 23330" /> 
<path d="M43063 23330 L43006 23330" /> 
<path d="M43006 23330 L42921 23301" /> 
<path d="M42921 23301 L42863 23244" /> 
<path d="M42863 23244 L42835 23187" /> 
<path d="M42835 23187 L42806 23073" /> 
<path d="M42806 23073 L42806 22987" /> 
<path d="M42806 22987 L42835 22873" /> 
<path d="M42835 22873 L42863 22816" /> 
<path d="M42863 22816 L42921 22758" /> 
<path d="M42921 22758 L43006 22730" /> 
<path d="M43006 22730 L43063 22730" /> 
<path d="M43063 22730 L43149 22758" /> 
<path d="M43149 22758 L43178 22787" /> 
<g style = "stroke-linecap:round;" > 
<path d="M43178 22787 L43178 22787" /> 
</g></g>
<g style="fill:#C0C0C0; fill-opacity:0.0; stroke:#00A0A0; stroke-opacity:1.00; stroke-linecap:round; stroke-linejoin:round; stroke-width:100" 
   transform="translate(0.00 0.00) scale(1.00 1.00)">
<path d="M44342 29887 L43492 30137" /> 
<path d="M41692 29887 L42142 30037" /> 
</g>
<g style="fill:#00A0A0; fill-opacity:0.0; stroke:#00A0A0; stroke-opacity:1.00; stroke-linecap:round; stroke-linejoin:round; stroke-width:100" 
   transform="translate(0.00 0.00) scale(1.00 1.00)">
<ellipse cx="42992" cy="27087" rx="3150" ry="3150"  /> 
<path d="M43792 30037 L42192 30037" /> 
<path d="M41842 29937 L44092 29937" /> 
<path d="M44092 29937 L43742 29937" /> 
<path d="M42442 30187 L43492 30187" /> 
<path d="M43842 30087 L42142 30087" /> 
<path d="M41892 29987 L44092 29987" /> 
<path d="M44092 29987 L44042 29987" /> 
<path d="M41592 29887 L44392 29887" /> 
<path d="M42442 29637 L42092 29637" /> 
</g>
<g style="fill:#808000; fill-opacity:1.00; stroke:#808000; stroke-opacity:1.00; stroke-linecap:round; stroke-linejoin:round; stroke-width:0" 
   transform="translate(0.00 0.00) scale(1.00 1.00)">
<ellipse cx="66260" cy="21339" rx="997" ry="997"  /> 
</g>
<g style="fill:#FFFFFF; fill-opacity:1.00; stroke:#808000; stroke-opacity:1.00; stroke-linecap:round; stroke-linejoin:round; stroke-width:0" 
   transform="translate(0.00 0.00) scale(1.00 1.00)">
<ellipse cx="66260" cy="21339" rx="206" ry="206"  /> 
</g>
<g style="fill:#FFFFFF; fill-opacity:1.00; stroke:#0000C0; stroke-opacity:1.00; stroke-linecap:round; stroke-linejoin:round; stroke-width:0" 
   transform="translate(0.00 0.00) scale(1.00 1.00)">
<path d="M66258 20139 L66262 20139" /> 
<path d="M66260 20137 L66260 20141" /> 
</g>
<g style="fill:#C0C0C0; fill-opacity:0.0; stroke:#C0C0C0; stroke-opacity:1.00; stroke-linecap:round; stroke-linejoin:round; stroke-width:100" 
   transform="translate(0.00 0.00) scale(1.00 1.00)">
<path d="M65965 20301 L65965 19901" /> 
<path d="M65965 19901 L66118 19901" /> 
<path d="M66118 19901 L66156 19920" /> 
<path d="M66156 19920 L66175 19939" /> 
<path d="M66175 19939 L66194 19977" /> 
<path d="M66194 19977 L66194 20034" /> 
<path d="M66194 20034 L66175 20072" /> 
<path d="M66175 20072 L66156 20091" /> 
<path d="M66156 20091 L66118 20110" /> 
<path d="M66118 20110 L65965 20110" /> 
<g style = "stroke-linecap:round;" > 
<path d="M65965 20110 L65965 20110" /> 
</g><path d="M66556 19901 L66365 19901" /> 
<path d="M66365 19901 L66346 20091" /> 
<path d="M66346 20091 L66365 20072" /> 
<path d="M66365 20072 L66403 20053" /> 
<path d="M66403 20053 L66499 20053" /> 
<path d="M66499 20053 L66537 20072" /> 
<path d="M66537 20072 L66556 20091" /> 
<path d="M66556 20091 L66575 20129" /> 
<path d="M66575 20129 L66575 20225" /> 
<path d="M66575 20225 L66556 20263" /> 
<path d="M66556 20263 L66537 20282" /> 
<path d="M66537 20282 L66499 20301" /> 
<path d="M66499 20301 L66403 20301" /> 
<path d="M66403 20301 L66365 20282" /> 
<path d="M66365 20282 L66346 20263" /> 
<g style = "stroke-linecap:round;" > 
<path d="M66346 20263 L66346 20263" /> 
</g></g>
<g style="fill:#00A0A0; fill-opacity:0.0; stroke:#00A0A0; stroke-opacity:1.00; stroke-linecap:round; stroke-linejoin:round; stroke-width:150" 
   transform="translate(0.00 0.00) scale(1.00 1.00)">
<ellipse cx="66260" cy="21339" rx="900" ry="900"  /> 
</g>
<g style="fill:#808000; fill-opacity:1.00; stroke:#808000; stroke-opacity:1.00; stroke-linecap:round; stroke-linejoin:round; stroke-width:0" 
   transform="translate(0.00 0.00) scale(1.00 1.00)">
<ellipse cx="13937" cy="22315" rx="500" ry="500"  /> 
</g>
<g style="fill:#FFFFFF; fill-opacity:1.00; stroke:#808000; stroke-opacity:1.00; stroke-linecap:round; stroke-linejoin:round; stroke-width:0" 
   transform="translate(0.00 0.00) scale(1.00 1.00)">
<ellipse cx="13937" cy="22315" rx="250" ry="250"  /> 
</g>
<g style="fill:#808000; fill-opacity:1.00; stroke:#808000; stroke-opacity:1.00; stroke-linecap:round; stroke-linejoin:round; stroke-width:0" 
   transform="translate(0.00 0.00) scale(1.00 1.00)">
<polygon style="fill-rule:evenodd; " 
points="13437,27815
14437,27815
14437,28815
13437,28815
" /> 
</g>
<g style="fill:#FFFFFF; fill-opacity:1.00; stroke:#808000; stroke-opacity:1.00; stroke-linecap:round; stroke-linejoin:round; stroke-width:0" 
   transform="translate(0.00 0.00) scale(1.00 1.00)">
<ellipse cx="13937" cy="28315" rx="250" ry="250"  /> 
</g>
<g style="fill:#FFFFFF; fill-opacity:1.00; stroke:#0000C0; stroke-opacity:1.00; stroke-linecap:round; stroke-linejoin:round; stroke-width:0" 
   transform="translate(0.00 0.00) scale(1.00 1.00)">
<path d="M13435 25065 L13439 25065" /> 
<path d="M13437 25063 L13437 25067" /> 
</g>
<g style="fill:#C0C0C0; fill-opacity:0.0; stroke:#C0C0C0; stroke-opacity:1.00; stroke-linecap:round; stroke-linejoin:round; stroke-width:100" 
   transform="translate(0.00 0.00) scale(1.00 1.00)">
<path d="M13680 25360 L13080 25360" /> 
<path d="M13080 25360 L13080 25265" /> 
<path d="M13080 25265 L13108 25207" /> 
<path d="M13108 25207 L13166 25169" /> 
<path d="M13166 25169 L13223 25150" /> 
<path d="M13223 25150 L13337 25131" /> 
<path d="M13337 25131 L13423 25131" /> 
<path d="M13423 25131 L13537 25150" /> 
<path d="M13537 25150 L13594 25169" /> 
<path d="M13594 25169 L13651 25207" /> 
<path d="M13651 25207 L13680 25265" /> 
<path d="M13680 25265 L13680 25360" /> 
<path d="M13680 24750 L13680 24979" /> 
<g style = "stroke-linecap:round;" > 
<path d="M13680 24979 L13680 24979" /> 
</g><path d="M13680 24865 L13080 24865" /> 
<path d="M13080 24865 L13166 24903" /> 
<path d="M13166 24903 L13223 24941" /> 
<path d="M13223 24941 L13251 24979" /> 
<g style = "stroke-linecap:round;" > 
<path d="M13251 24979 L13251 24979" /> 
</g></g>
<g style="fill:#C0C0C0; fill-opacity:0.0; stroke:#0000C0; stroke-opacity:1.00; stroke-linecap:round; stroke-linejoin:round; stroke-width:0" 
   transform="translate(0.00 0.00) scale(1.00 1.00)">
<path d="M14435 25065 L14439 25065" /> 
<path d="M14437 25063 L14437 25067" /> 
</g>
<g style="fill:#C0C0C0; fill-opacity:0.0; stroke:#C0C0C0; stroke-opacity:1.00; stroke-linecap:round; stroke-linejoin:round; stroke-width:100" 
   transform="translate(0.00 0.00) scale(1.00 1.00)">
<path d="M14680 25855 L14080 25855" /> 
<path d="M14080 25855 L14080 25760" /> 
<path d="M14080 25760 L14108 25702" /> 
<path d="M14108 25702 L14166 25664" /> 
<path d="M14166 25664 L14223 25645" /> 
<path d="M14223 25645 L14337 25626" /> 
<path d="M14337 25626 L14423 25626" /> 
<path d="M14423 25626 L14537 25645" /> 
<path d="M14537 25645 L14594 25664" /> 
<path d="M14594 25664 L14651 25702" /> 
<path d="M14651 25702 L14680 25760" /> 
<path d="M14680 25760 L14680 25855" /> 
<path d="M14680 25455 L14080 25455" /> 
<g style = "stroke-linecap:round;" > 
<path d="M14080 25455 L14080 25455" /> 
</g><path d="M14080 25189 L14080 25112" /> 
<path d="M14080 25112 L14108 25074" /> 
<path d="M14108 25074 L14166 25036" /> 
<path d="M14166 25036 L14280 25017" /> 
<path d="M14280 25017 L14480 25017" /> 
<path d="M14480 25017 L14594 25036" /> 
<path d="M14594 25036 L14651 25074" /> 
<path d="M14651 25074 L14680 25112" /> 
<path d="M14680 25112 L14680 25189" /> 
<path d="M14680 25189 L14651 25227" /> 
<path d="M14651 25227 L14594 25265" /> 
<path d="M14594 25265 L14480 25284" /> 
<path d="M14480 25284 L14280 25284" /> 
<path d="M14280 25284 L14166 25265" /> 
<path d="M14166 25265 L14108 25227" /> 
<path d="M14108 25227 L14080 25189" /> 
<path d="M14680 24846 L14080 24846" /> 
<path d="M14080 24846 L14080 24751" /> 
<path d="M14080 24751 L14108 24693" /> 
<path d="M14108 24693 L14166 24655" /> 
<path d="M14166 24655 L14223 24636" /> 
<path d="M14223 24636 L14337 24617" /> 
<path d="M14337 24617 L14423 24617" /> 
<path d="M14423 24617 L14537 24636" /> 
<path d="M14537 24636 L14594 24655" /> 
<path d="M14594 24655 L14651 24693" /> 
<path d="M14651 24693 L14680 24751" /> 
<path d="M14680 24751 L14680 24846" /> 
<path d="M14366 24446 L14366 24312" /> 
<g style = "stroke-linecap:round;" > 
<path d="M14366 24312 L14366 24312" /> 
</g><path d="M14680 24255 L14680 24446" /> 
<path d="M14680 24446 L14080 24446" /> 
<path d="M14080 24446 L14080 24255" /> 
<g style = "stroke-linecap:round;" > 
<path d="M14080 24255 L14080 24255" /> 
</g></g>
<g style="fill:#C0C0C0; fill-opacity:0.0; stroke:#00A0A0; stroke-opacity:1.00; stroke-linecap:round; stroke-linejoin:round; stroke-width:120" 
   transform="translate(0.00 0.00) scale(1.00 1.00)">
<path d="M15187 23065 L12687 23065" /> 
<path d="M12687 23065 L12687 27565" /> 
<path d="M12687 27565 L15187 27565" /> 
<path d="M15187 27565 L15187 23065" /> 
<path d="M15187 27315 L12687 27315" /> 
<path d="M12687 27065 L15187 27065" /> 
<path d="M13937 27565 L13937 28315" /> 
<path d="M13937 23065 L13937 22315" /> 
</g>
<g style="fill:#808000; fill-opacity:1.00; stroke:#808000; stroke-opacity:1.00; stroke-linecap:round; stroke-linejoin:round; stroke-width:0" 
   transform="translate(0.00 0.00) scale(1.00 1.00)">
<ellipse cx="13858" cy="18591" rx="500" ry="500"  /> 
</g>
<g style="fill:#FFFFFF; fill-opacity:1.00; stroke:#808000; stroke-opacity:1.00; stroke-linecap:round; stroke-linejoin:round; stroke-width:0" 
   transform="translate(0.00 0.00) scale(1.00 1.00)">
<ellipse cx="13858" cy="18591" rx="250" ry="250"  /> 
</g>
<g style="fill:#808000; fill-opacity:1.00; stroke:#808000; stroke-opacity:1.00; stroke-linecap:round; stroke-linejoin:round; stroke-width:0" 
   transform="translate(0.00 0.00) scale(1.00 1.00)">
<polygon style="fill-rule:evenodd; " 
points="14358,13091
13358,13091
13358,12091
14358,12091
" /> 
</g>
<g style="fill:#FFFFFF; fill-opacity:1.00; stroke:#808000; stroke-opacity:1.00; stroke-linecap:round; stroke-linejoin:round; stroke-width:0" 
   transform="translate(0.00 0.00) scale(1.00 1.00)">
<ellipse cx="13858" cy="12591" rx="250" ry="250"  /> 
</g>
<g style="fill:#FFFFFF; fill-opacity:1.00; stroke:#0000C0; stroke-opacity:1.00; stroke-linecap:round; stroke-linejoin:round; stroke-width:0" 
   transform="translate(0.00 0.00) scale(1.00 1.00)">
<path d="M14356 15841 L14360 15841" /> 
<path d="M14358 15839 L14358 15843" /> 
</g>
<g style="fill:#C0C0C0; fill-opacity:0.0; stroke:#C0C0C0; stroke-opacity:1.00; stroke-linecap:round; stroke-linejoin:round; stroke-width:100" 
   transform="translate(0.00 0.00) scale(1.00 1.00)">
<path d="M14601 16136 L14001 16136" /> 
<path d="M14001 16136 L14001 16041" /> 
<path d="M14001 16041 L14029 15983" /> 
<path d="M14029 15983 L14087 15945" /> 
<path d="M14087 15945 L14144 15926" /> 
<path d="M14144 15926 L14258 15907" /> 
<path d="M14258 15907 L14344 15907" /> 
<path d="M14344 15907 L14458 15926" /> 
<path d="M14458 15926 L14515 15945" /> 
<path d="M14515 15945 L14572 15983" /> 
<path d="M14572 15983 L14601 16041" /> 
<path d="M14601 16041 L14601 16136" /> 
<path d="M14058 15755 L14029 15736" /> 
<path d="M14029 15736 L14001 15698" /> 
<path d="M14001 15698 L14001 15602" /> 
<path d="M14001 15602 L14029 15564" /> 
<path d="M14029 15564 L14058 15545" /> 
<path d="M14058 15545 L14115 15526" /> 
<path d="M14115 15526 L14172 15526" /> 
<path d="M14172 15526 L14258 15545" /> 
<path d="M14258 15545 L14601 15774" /> 
<path d="M14601 15774 L14601 15526" /> 
<g style = "stroke-linecap:round;" > 
<path d="M14601 15526 L14601 15526" /> 
</g></g>
<g style="fill:#C0C0C0; fill-opacity:0.0; stroke:#0000C0; stroke-opacity:1.00; stroke-linecap:round; stroke-linejoin:round; stroke-width:0" 
   transform="translate(0.00 0.00) scale(1.00 1.00)">
<path d="M13356 15841 L13360 15841" /> 
<path d="M13358 15839 L13358 15843" /> 
</g>
<g style="fill:#C0C0C0; fill-opacity:0.0; stroke:#C0C0C0; stroke-opacity:1.00; stroke-linecap:round; stroke-linejoin:round; stroke-width:100" 
   transform="translate(0.00 0.00) scale(1.00 1.00)">
<path d="M13601 16631 L13001 16631" /> 
<path d="M13001 16631 L13001 16536" /> 
<path d="M13001 16536 L13029 16478" /> 
<path d="M13029 16478 L13087 16440" /> 
<path d="M13087 16440 L13144 16421" /> 
<path d="M13144 16421 L13258 16402" /> 
<path d="M13258 16402 L13344 16402" /> 
<path d="M13344 16402 L13458 16421" /> 
<path d="M13458 16421 L13515 16440" /> 
<path d="M13515 16440 L13572 16478" /> 
<path d="M13572 16478 L13601 16536" /> 
<path d="M13601 16536 L13601 16631" /> 
<path d="M13601 16231 L13001 16231" /> 
<g style = "stroke-linecap:round;" > 
<path d="M13001 16231 L13001 16231" /> 
</g><path d="M13001 15965 L13001 15888" /> 
<path d="M13001 15888 L13029 15850" /> 
<path d="M13029 15850 L13087 15812" /> 
<path d="M13087 15812 L13201 15793" /> 
<path d="M13201 15793 L13401 15793" /> 
<path d="M13401 15793 L13515 15812" /> 
<path d="M13515 15812 L13572 15850" /> 
<path d="M13572 15850 L13601 15888" /> 
<path d="M13601 15888 L13601 15965" /> 
<path d="M13601 15965 L13572 16003" /> 
<path d="M13572 16003 L13515 16041" /> 
<path d="M13515 16041 L13401 16060" /> 
<path d="M13401 16060 L13201 16060" /> 
<path d="M13201 16060 L13087 16041" /> 
<path d="M13087 16041 L13029 16003" /> 
<path d="M13029 16003 L13001 15965" /> 
<path d="M13601 15622 L13001 15622" /> 
<path d="M13001 15622 L13001 15527" /> 
<path d="M13001 15527 L13029 15469" /> 
<path d="M13029 15469 L13087 15431" /> 
<path d="M13087 15431 L13144 15412" /> 
<path d="M13144 15412 L13258 15393" /> 
<path d="M13258 15393 L13344 15393" /> 
<path d="M13344 15393 L13458 15412" /> 
<path d="M13458 15412 L13515 15431" /> 
<path d="M13515 15431 L13572 15469" /> 
<path d="M13572 15469 L13601 15527" /> 
<path d="M13601 15527 L13601 15622" /> 
<path d="M13287 15222 L13287 15088" /> 
<g style = "stroke-linecap:round;" > 
<path d="M13287 15088 L13287 15088" /> 
</g><path d="M13601 15031 L13601 15222" /> 
<path d="M13601 15222 L13001 15222" /> 
<path d="M13001 15222 L13001 15031" /> 
<g style = "stroke-linecap:round;" > 
<path d="M13001 15031 L13001 15031" /> 
</g></g>
<g style="fill:#C0C0C0; fill-opacity:0.0; stroke:#00A0A0; stroke-opacity:1.00; stroke-linecap:round; stroke-linejoin:round; stroke-width:120" 
   transform="translate(0.00 0.00) scale(1.00 1.00)">
<path d="M12608 17841 L15108 17841" /> 
<path d="M15108 17841 L15108 13341" /> 
<path d="M15108 13341 L12608 13341" /> 
<path d="M12608 13341 L12608 17841" /> 
<path d="M12608 13591 L15108 13591" /> 
<path d="M15108 13841 L12608 13841" /> 
<path d="M13858 13341 L13858 12591" /> 
<path d="M13858 17841 L13858 18591" /> 
</g>
<g style="fill:#808000; fill-opacity:1.00; stroke:#808000; stroke-opacity:1.00; stroke-linecap:round; stroke-linejoin:round; stroke-width:0" 
   transform="translate(0.00 0.00) scale(1.00 1.00)">
<ellipse cx="23780" cy="22433" rx="500" ry="500"  /> 
</g>
<g style="fill:#FFFFFF; fill-opacity:1.00; stroke:#808000; stroke-opacity:1.00; stroke-linecap:round; stroke-linejoin:round; stroke-width:0" 
   transform="translate(0.00 0.00) scale(1.00 1.00)">
<ellipse cx="23780" cy="22433" rx="250" ry="250"  /> 
</g>
<g style="fill:#808000; fill-opacity:1.00; stroke:#808000; stroke-opacity:1.00; stroke-linecap:round; stroke-linejoin:round; stroke-width:0" 
   transform="translate(0.00 0.00) scale(1.00 1.00)">
<polygon style="fill-rule:evenodd; " 
points="23280,27933
24280,27933
24280,28933
23280,28933
" /> 
</g>
<g style="fill:#FFFFFF; fill-opacity:1.00; stroke:#808000; stroke-opacity:1.00; stroke-linecap:round; stroke-linejoin:round; stroke-width:0" 
   transform="translate(0.00 0.00) scale(1.00 1.00)">
<ellipse cx="23780" cy="28433" rx="250" ry="250"  /> 
</g>
<g style="fill:#FFFFFF; fill-opacity:1.00; stroke:#0000C0; stroke-opacity:1.00; stroke-linecap:round; stroke-linejoin:round; stroke-width:0" 
   transform="translate(0.00 0.00) scale(1.00 1.00)">
<path d="M23278 25183 L23282 25183" /> 
<path d="M23280 25181 L23280 25185" /> 
</g>
<g style="fill:#C0C0C0; fill-opacity:0.0; stroke:#C0C0C0; stroke-opacity:1.00; stroke-linecap:round; stroke-linejoin:round; stroke-width:100" 
   transform="translate(0.00 0.00) scale(1.00 1.00)">
<path d="M23523 25478 L22923 25478" /> 
<path d="M22923 25478 L22923 25383" /> 
<path d="M22923 25383 L22951 25325" /> 
<path d="M22951 25325 L23009 25287" /> 
<path d="M23009 25287 L23066 25268" /> 
<path d="M23066 25268 L23180 25249" /> 
<path d="M23180 25249 L23266 25249" /> 
<path d="M23266 25249 L23380 25268" /> 
<path d="M23380 25268 L23437 25287" /> 
<path d="M23437 25287 L23494 25325" /> 
<path d="M23494 25325 L23523 25383" /> 
<path d="M23523 25383 L23523 25478" /> 
<path d="M22923 25116 L22923 24868" /> 
<path d="M22923 24868 L23151 25002" /> 
<path d="M23151 25002 L23151 24944" /> 
<path d="M23151 24944 L23180 24906" /> 
<path d="M23180 24906 L23209 24887" /> 
<path d="M23209 24887 L23266 24868" /> 
<path d="M23266 24868 L23409 24868" /> 
<path d="M23409 24868 L23466 24887" /> 
<path d="M23466 24887 L23494 24906" /> 
<path d="M23494 24906 L23523 24944" /> 
<path d="M23523 24944 L23523 25059" /> 
<path d="M23523 25059 L23494 25097" /> 
<path d="M23494 25097 L23466 25116" /> 
<g style = "stroke-linecap:round;" > 
<path d="M23466 25116 L23466 25116" /> 
</g></g>
<g style="fill:#C0C0C0; fill-opacity:0.0; stroke:#0000C0; stroke-opacity:1.00; stroke-linecap:round; stroke-linejoin:round; stroke-width:0" 
   transform="translate(0.00 0.00) scale(1.00 1.00)">
<path d="M24278 25183 L24282 25183" /> 
<path d="M24280 25181 L24280 25185" /> 
</g>
<g style="fill:#C0C0C0; fill-opacity:0.0; stroke:#C0C0C0; stroke-opacity:1.00; stroke-linecap:round; stroke-linejoin:round; stroke-width:100" 
   transform="translate(0.00 0.00) scale(1.00 1.00)">
<path d="M24523 25973 L23923 25973" /> 
<path d="M23923 25973 L23923 25878" /> 
<path d="M23923 25878 L23951 25820" /> 
<path d="M23951 25820 L24009 25782" /> 
<path d="M24009 25782 L24066 25763" /> 
<path d="M24066 25763 L24180 25744" /> 
<path d="M24180 25744 L24266 25744" /> 
<path d="M24266 25744 L24380 25763" /> 
<path d="M24380 25763 L24437 25782" /> 
<path d="M24437 25782 L24494 25820" /> 
<path d="M24494 25820 L24523 25878" /> 
<path d="M24523 25878 L24523 25973" /> 
<path d="M24523 25573 L23923 25573" /> 
<g style = "stroke-linecap:round;" > 
<path d="M23923 25573 L23923 25573" /> 
</g><path d="M23923 25307 L23923 25230" /> 
<path d="M23923 25230 L23951 25192" /> 
<path d="M23951 25192 L24009 25154" /> 
<path d="M24009 25154 L24123 25135" /> 
<path d="M24123 25135 L24323 25135" /> 
<path d="M24323 25135 L24437 25154" /> 
<path d="M24437 25154 L24494 25192" /> 
<path d="M24494 25192 L24523 25230" /> 
<path d="M24523 25230 L24523 25307" /> 
<path d="M24523 25307 L24494 25345" /> 
<path d="M24494 25345 L24437 25383" /> 
<path d="M24437 25383 L24323 25402" /> 
<path d="M24323 25402 L24123 25402" /> 
<path d="M24123 25402 L24009 25383" /> 
<path d="M24009 25383 L23951 25345" /> 
<path d="M23951 25345 L23923 25307" /> 
<path d="M24523 24964 L23923 24964" /> 
<path d="M23923 24964 L23923 24869" /> 
<path d="M23923 24869 L23951 24811" /> 
<path d="M23951 24811 L24009 24773" /> 
<path d="M24009 24773 L24066 24754" /> 
<path d="M24066 24754 L24180 24735" /> 
<path d="M24180 24735 L24266 24735" /> 
<path d="M24266 24735 L24380 24754" /> 
<path d="M24380 24754 L24437 24773" /> 
<path d="M24437 24773 L24494 24811" /> 
<path d="M24494 24811 L24523 24869" /> 
<path d="M24523 24869 L24523 24964" /> 
<path d="M24209 24564 L24209 24430" /> 
<g style = "stroke-linecap:round;" > 
<path d="M24209 24430 L24209 24430" /> 
</g><path d="M24523 24373 L24523 24564" /> 
<path d="M24523 24564 L23923 24564" /> 
<path d="M23923 24564 L23923 24373" /> 
<g style = "stroke-linecap:round;" > 
<path d="M23923 24373 L23923 24373" /> 
</g></g>
<g style="fill:#C0C0C0; fill-opacity:0.0; stroke:#00A0A0; stroke-opacity:1.00; stroke-linecap:round; stroke-linejoin:round; stroke-width:120" 
   transform="translate(0.00 0.00) scale(1.00 1.00)">
<path d="M25030 23183 L22530 23183" /> 
<path d="M22530 23183 L22530 27683" /> 
<path d="M22530 27683 L25030 27683" /> 
<path d="M25030 27683 L25030 23183" /> 
<path d="M25030 27433 L22530 27433" /> 
<path d="M22530 27183 L25030 27183" /> 
<path d="M23780 27683 L23780 28433" /> 
<path d="M23780 23183 L23780 22433" /> 
</g>
<g style="fill:#808000; fill-opacity:1.00; stroke:#808000; stroke-opacity:1.00; stroke-linecap:round; stroke-linejoin:round; stroke-width:0" 
   transform="translate(0.00 0.00) scale(1.00 1.00)">
<ellipse cx="23780" cy="18827" rx="500" ry="500"  /> 
</g>
<g style="fill:#FFFFFF; fill-opacity:1.00; stroke:#808000; stroke-opacity:1.00; stroke-linecap:round; stroke-linejoin:round; stroke-width:0" 
   transform="translate(0.00 0.00) scale(1.00 1.00)">
<ellipse cx="23780" cy="18827" rx="250" ry="250"  /> 
</g>
<g style="fill:#808000; fill-opacity:1.00; stroke:#808000; stroke-opacity:1.00; stroke-linecap:round; stroke-linejoin:round; stroke-width:0" 
   transform="translate(0.00 0.00) scale(1.00 1.00)">
<polygon style="fill-rule:evenodd; " 
points="24280,13327
23280,13327
23280,12327
24280,12327
" /> 
</g>
<g style="fill:#FFFFFF; fill-opacity:1.00; stroke:#808000; stroke-opacity:1.00; stroke-linecap:round; stroke-linejoin:round; stroke-width:0" 
   transform="translate(0.00 0.00) scale(1.00 1.00)">
<ellipse cx="23780" cy="12827" rx="250" ry="250"  /> 
</g>
<g style="fill:#FFFFFF; fill-opacity:1.00; stroke:#0000C0; stroke-opacity:1.00; stroke-linecap:round; stroke-linejoin:round; stroke-width:0" 
   transform="translate(0.00 0.00) scale(1.00 1.00)">
<path d="M24278 16077 L24282 16077" /> 
<path d="M24280 16075 L24280 16079" /> 
</g>
<g style="fill:#C0C0C0; fill-opacity:0.0; stroke:#C0C0C0; stroke-opacity:1.00; stroke-linecap:round; stroke-linejoin:round; stroke-width:100" 
   transform="translate(0.00 0.00) scale(1.00 1.00)">
<path d="M24523 16372 L23923 16372" /> 
<path d="M23923 16372 L23923 16277" /> 
<path d="M23923 16277 L23951 16219" /> 
<path d="M23951 16219 L24009 16181" /> 
<path d="M24009 16181 L24066 16162" /> 
<path d="M24066 16162 L24180 16143" /> 
<path d="M24180 16143 L24266 16143" /> 
<path d="M24266 16143 L24380 16162" /> 
<path d="M24380 16162 L24437 16181" /> 
<path d="M24437 16181 L24494 16219" /> 
<path d="M24494 16219 L24523 16277" /> 
<path d="M24523 16277 L24523 16372" /> 
<path d="M24123 15800 L24523 15800" /> 
<g style = "stroke-linecap:round;" > 
<path d="M24523 15800 L24523 15800" /> 
</g><path d="M23894 15896 L24323 15991" /> 
<path d="M24323 15991 L24323 15743" /> 
<g style = "stroke-linecap:round;" > 
<path d="M24323 15743 L24323 15743" /> 
</g></g>
<g style="fill:#C0C0C0; fill-opacity:0.0; stroke:#0000C0; stroke-opacity:1.00; stroke-linecap:round; stroke-linejoin:round; stroke-width:0" 
   transform="translate(0.00 0.00) scale(1.00 1.00)">
<path d="M23278 16077 L23282 16077" /> 
<path d="M23280 16075 L23280 16079" /> 
</g>
<g style="fill:#C0C0C0; fill-opacity:0.0; stroke:#C0C0C0; stroke-opacity:1.00; stroke-linecap:round; stroke-linejoin:round; stroke-width:100" 
   transform="translate(0.00 0.00) scale(1.00 1.00)">
<path d="M23523 16867 L22923 16867" /> 
<path d="M22923 16867 L22923 16772" /> 
<path d="M22923 16772 L22951 16714" /> 
<path d="M22951 16714 L23009 16676" /> 
<path d="M23009 16676 L23066 16657" /> 
<path d="M23066 16657 L23180 16638" /> 
<path d="M23180 16638 L23266 16638" /> 
<path d="M23266 16638 L23380 16657" /> 
<path d="M23380 16657 L23437 16676" /> 
<path d="M23437 16676 L23494 16714" /> 
<path d="M23494 16714 L23523 16772" /> 
<path d="M23523 16772 L23523 16867" /> 
<path d="M23523 16467 L22923 16467" /> 
<g style = "stroke-linecap:round;" > 
<path d="M22923 16467 L22923 16467" /> 
</g><path d="M22923 16201 L22923 16124" /> 
<path d="M22923 16124 L22951 16086" /> 
<path d="M22951 16086 L23009 16048" /> 
<path d="M23009 16048 L23123 16029" /> 
<path d="M23123 16029 L23323 16029" /> 
<path d="M23323 16029 L23437 16048" /> 
<path d="M23437 16048 L23494 16086" /> 
<path d="M23494 16086 L23523 16124" /> 
<path d="M23523 16124 L23523 16201" /> 
<path d="M23523 16201 L23494 16239" /> 
<path d="M23494 16239 L23437 16277" /> 
<path d="M23437 16277 L23323 16296" /> 
<path d="M23323 16296 L23123 16296" /> 
<path d="M23123 16296 L23009 16277" /> 
<path d="M23009 16277 L22951 16239" /> 
<path d="M22951 16239 L22923 16201" /> 
<path d="M23523 15858 L22923 15858" /> 
<path d="M22923 15858 L22923 15763" /> 
<path d="M22923 15763 L22951 15705" /> 
<path d="M22951 15705 L23009 15667" /> 
<path d="M23009 15667 L23066 15648" /> 
<path d="M23066 15648 L23180 15629" /> 
<path d="M23180 15629 L23266 15629" /> 
<path d="M23266 15629 L23380 15648" /> 
<path d="M23380 15648 L23437 15667" /> 
<path d="M23437 15667 L23494 15705" /> 
<path d="M23494 15705 L23523 15763" /> 
<path d="M23523 15763 L23523 15858" /> 
<path d="M23209 15458 L23209 15324" /> 
<g style = "stroke-linecap:round;" > 
<path d="M23209 15324 L23209 15324" /> 
</g><path d="M23523 15267 L23523 15458" /> 
<path d="M23523 15458 L22923 15458" /> 
<path d="M22923 15458 L22923 15267" /> 
<g style = "stroke-linecap:round;" > 
<path d="M22923 15267 L22923 15267" /> 
</g></g>
<g style="fill:#C0C0C0; fill-opacity:0.0; stroke:#00A0A0; stroke-opacity:1.00; stroke-linecap:round; stroke-linejoin:round; stroke-width:120" 
   transform="translate(0.00 0.00) scale(1.00 1.00)">
<path d="M22530 18077 L25030 18077" /> 
<path d="M25030 18077 L25030 13577" /> 
<path d="M25030 13577 L22530 13577" /> 
<path d="M22530 13577 L22530 18077" /> 
<path d="M22530 13827 L25030 13827" /> 
<path d="M25030 14077 L22530 14077" /> 
<path d="M23780 13577 L23780 12827" /> 
<path d="M23780 18077 L23780 18827" /> 
</g>
<g style="fill:#808000; fill-opacity:1.00; stroke:#808000; stroke-opacity:1.00; stroke-linecap:round; stroke-linejoin:round; stroke-width:0" 
   transform="translate(0.00 0.00) scale(1.00 1.00)">
<ellipse cx="17795" cy="26606" rx="393" ry="393"  /> 
</g>
<g style="fill:#FFFFFF; fill-opacity:1.00; stroke:#808000; stroke-opacity:1.00; stroke-linecap:round; stroke-linejoin:round; stroke-width:0" 
   transform="translate(0.00 0.00) scale(1.00 1.00)">
<ellipse cx="17795" cy="26606" rx="157" ry="157"  /> 
</g>
<g style="fill:#808000; fill-opacity:1.00; stroke:#808000; stroke-opacity:1.00; stroke-linecap:round; stroke-linejoin:round; stroke-width:0" 
   transform="translate(0.00 0.00) scale(1.00 1.00)">
<ellipse cx="17795" cy="22606" rx="393" ry="393"  /> 
</g>
<g style="fill:#FFFFFF; fill-opacity:1.00; stroke:#808000; stroke-opacity:1.00; stroke-linecap:round; stroke-linejoin:round; stroke-width:0" 
   transform="translate(0.00 0.00) scale(1.00 1.00)">
<ellipse cx="17795" cy="22606" rx="157" ry="157"  /> 
</g>
<g style="fill:#FFFFFF; fill-opacity:1.00; stroke:#0000C0; stroke-opacity:1.00; stroke-linecap:round; stroke-linejoin:round; stroke-width:0" 
   transform="translate(0.00 0.00) scale(1.00 1.00)">
<path d="M16293 24606 L16297 24606" /> 
<path d="M16295 24604 L16295 24608" /> 
</g>
<g style="fill:#C0C0C0; fill-opacity:0.0; stroke:#C0C0C0; stroke-opacity:1.00; stroke-linecap:round; stroke-linejoin:round; stroke-width:120" 
   transform="translate(0.00 0.00) scale(1.00 1.00)">
<path d="M16481 24705 L16509 24734" /> 
<path d="M16509 24734 L16538 24820" /> 
<path d="M16538 24820 L16538 24877" /> 
<path d="M16538 24877 L16509 24962" /> 
<path d="M16509 24962 L16452 25020" /> 
<path d="M16452 25020 L16395 25048" /> 
<path d="M16395 25048 L16281 25077" /> 
<path d="M16281 25077 L16195 25077" /> 
<path d="M16195 25077 L16081 25048" /> 
<path d="M16081 25048 L16024 25020" /> 
<path d="M16024 25020 L15966 24962" /> 
<path d="M15966 24962 L15938 24877" /> 
<path d="M15938 24877 L15938 24820" /> 
<path d="M15938 24820 L15966 24734" /> 
<path d="M15966 24734 L15995 24705" /> 
<g style = "stroke-linecap:round;" > 
<path d="M15995 24705 L15995 24705" /> 
</g><path d="M16538 24134 L16538 24477" /> 
<g style = "stroke-linecap:round;" > 
<path d="M16538 24477 L16538 24477" /> 
</g><path d="M16538 24305 L15938 24305" /> 
<path d="M15938 24305 L16024 24362" /> 
<path d="M16024 24362 L16081 24420" /> 
<path d="M16081 24420 L16109 24477" /> 
<g style = "stroke-linecap:round;" > 
<path d="M16109 24477 L16109 24477" /> 
</g></g>
<g style="fill:#C0C0C0; fill-opacity:0.0; stroke:#0000C0; stroke-opacity:1.00; stroke-linecap:round; stroke-linejoin:round; stroke-width:0" 
   transform="translate(0.00 0.00) scale(1.00 1.00)">
<path d="M19093 24606 L19097 24606" /> 
<path d="M19095 24604 L19095 24608" /> 
</g>
<g style="fill:#C0C0C0; fill-opacity:0.0; stroke:#C0C0C0; stroke-opacity:1.00; stroke-linecap:round; stroke-linejoin:round; stroke-width:120" 
   transform="translate(0.00 0.00) scale(1.00 1.00)">
<path d="M19281 24420 L19309 24449" /> 
<path d="M19309 24449 L19338 24535" /> 
<path d="M19338 24535 L19338 24592" /> 
<path d="M19338 24592 L19309 24677" /> 
<path d="M19309 24677 L19252 24735" /> 
<path d="M19252 24735 L19195 24763" /> 
<path d="M19195 24763 L19081 24792" /> 
<path d="M19081 24792 L18995 24792" /> 
<path d="M18995 24792 L18881 24763" /> 
<path d="M18881 24763 L18824 24735" /> 
<path d="M18824 24735 L18766 24677" /> 
<path d="M18766 24677 L18738 24592" /> 
<path d="M18738 24592 L18738 24535" /> 
<path d="M18738 24535 L18766 24449" /> 
<path d="M18766 24449 L18795 24420" /> 
<g style = "stroke-linecap:round;" > 
<path d="M18795 24420 L18795 24420" /> 
</g></g>
<g style="fill:#C0C0C0; fill-opacity:0.0; stroke:#00A0A0; stroke-opacity:1.00; stroke-linecap:round; stroke-linejoin:round; stroke-width:98" 
   transform="translate(0.00 0.00) scale(1.00 1.00)">
<path d="M18575 22006 L18575 27206" /> 
<path d="M16975 27206 L16975 22006" /> 
<path d="M18575 22006 L16975 22006" /> 
<path d="M16975 27206 L18575 27206" /> 
</g>
<g style="fill:#808000; fill-opacity:1.00; stroke:#808000; stroke-opacity:1.00; stroke-linecap:round; stroke-linejoin:round; stroke-width:0" 
   transform="translate(0.00 0.00) scale(1.00 1.00)">
<ellipse cx="17795" cy="18496" rx="393" ry="393"  /> 
</g>
<g style="fill:#FFFFFF; fill-opacity:1.00; stroke:#808000; stroke-opacity:1.00; stroke-linecap:round; stroke-linejoin:round; stroke-width:0" 
   transform="translate(0.00 0.00) scale(1.00 1.00)">
<ellipse cx="17795" cy="18496" rx="157" ry="157"  /> 
</g>
<g style="fill:#808000; fill-opacity:1.00; stroke:#808000; stroke-opacity:1.00; stroke-linecap:round; stroke-linejoin:round; stroke-width:0" 
   transform="translate(0.00 0.00) scale(1.00 1.00)">
<ellipse cx="17795" cy="14496" rx="393" ry="393"  /> 
</g>
<g style="fill:#FFFFFF; fill-opacity:1.00; stroke:#808000; stroke-opacity:1.00; stroke-linecap:round; stroke-linejoin:round; stroke-width:0" 
   transform="translate(0.00 0.00) scale(1.00 1.00)">
<ellipse cx="17795" cy="14496" rx="157" ry="157"  /> 
</g>
<g style="fill:#FFFFFF; fill-opacity:1.00; stroke:#0000C0; stroke-opacity:1.00; stroke-linecap:round; stroke-linejoin:round; stroke-width:0" 
   transform="translate(0.00 0.00) scale(1.00 1.00)">
<path d="M16293 16496 L16297 16496" /> 
<path d="M16295 16494 L16295 16498" /> 
</g>
<g style="fill:#C0C0C0; fill-opacity:0.0; stroke:#C0C0C0; stroke-opacity:1.00; stroke-linecap:round; stroke-linejoin:round; stroke-width:120" 
   transform="translate(0.00 0.00) scale(1.00 1.00)">
<path d="M16481 16595 L16509 16624" /> 
<path d="M16509 16624 L16538 16710" /> 
<path d="M16538 16710 L16538 16767" /> 
<path d="M16538 16767 L16509 16852" /> 
<path d="M16509 16852 L16452 16910" /> 
<path d="M16452 16910 L16395 16938" /> 
<path d="M16395 16938 L16281 16967" /> 
<path d="M16281 16967 L16195 16967" /> 
<path d="M16195 16967 L16081 16938" /> 
<path d="M16081 16938 L16024 16910" /> 
<path d="M16024 16910 L15966 16852" /> 
<path d="M15966 16852 L15938 16767" /> 
<path d="M15938 16767 L15938 16710" /> 
<path d="M15938 16710 L15966 16624" /> 
<path d="M15966 16624 L15995 16595" /> 
<g style = "stroke-linecap:round;" > 
<path d="M15995 16595 L15995 16595" /> 
</g><path d="M15995 16367 L15966 16338" /> 
<path d="M15966 16338 L15938 16281" /> 
<path d="M15938 16281 L15938 16138" /> 
<path d="M15938 16138 L15966 16081" /> 
<path d="M15966 16081 L15995 16052" /> 
<path d="M15995 16052 L16052 16024" /> 
<path d="M16052 16024 L16109 16024" /> 
<path d="M16109 16024 L16195 16052" /> 
<path d="M16195 16052 L16538 16395" /> 
<path d="M16538 16395 L16538 16024" /> 
<g style = "stroke-linecap:round;" > 
<path d="M16538 16024 L16538 16024" /> 
</g></g>
<g style="fill:#C0C0C0; fill-opacity:0.0; stroke:#0000C0; stroke-opacity:1.00; stroke-linecap:round; stroke-linejoin:round; stroke-width:0" 
   transform="translate(0.00 0.00) scale(1.00 1.00)">
<path d="M19093 16496 L19097 16496" /> 
<path d="M19095 16494 L19095 16498" /> 
</g>
<g style="fill:#C0C0C0; fill-opacity:0.0; stroke:#C0C0C0; stroke-opacity:1.00; stroke-linecap:round; stroke-linejoin:round; stroke-width:120" 
   transform="translate(0.00 0.00) scale(1.00 1.00)">
<path d="M19281 16310 L19309 16339" /> 
<path d="M19309 16339 L19338 16425" /> 
<path d="M19338 16425 L19338 16482" /> 
<path d="M19338 16482 L19309 16567" /> 
<path d="M19309 16567 L19252 16625" /> 
<path d="M19252 16625 L19195 16653" /> 
<path d="M19195 16653 L19081 16682" /> 
<path d="M19081 16682 L18995 16682" /> 
<path d="M18995 16682 L18881 16653" /> 
<path d="M18881 16653 L18824 16625" /> 
<path d="M18824 16625 L18766 16567" /> 
<path d="M18766 16567 L18738 16482" /> 
<path d="M18738 16482 L18738 16425" /> 
<path d="M18738 16425 L18766 16339" /> 
<path d="M18766 16339 L18795 16310" /> 
<g style = "stroke-linecap:round;" > 
<path d="M18795 16310 L18795 16310" /> 
</g></g>
<g style="fill:#C0C0C0; fill-opacity:0.0; stroke:#00A0A0; stroke-opacity:1.00; stroke-linecap:round; stroke-linejoin:round; stroke-width:98" 
   transform="translate(0.00 0.00) scale(1.00 1.00)">
<path d="M18575 13896 L18575 19096" /> 
<path d="M16975 19096 L16975 13896" /> 
<path d="M18575 13896 L16975 13896" /> 
<path d="M16975 19096 L18575 19096" /> 
</g>
<g style="fill:#808000; fill-opacity:1.00; stroke:#808000; stroke-opacity:1.00; stroke-linecap:round; stroke-linejoin:round; stroke-width:0" 
   transform="translate(0.00 0.00) scale(1.00 1.00)">
<ellipse cx="27953" cy="26685" rx="393" ry="393"  /> 
</g>
<g style="fill:#FFFFFF; fill-opacity:1.00; stroke:#808000; stroke-opacity:1.00; stroke-linecap:round; stroke-linejoin:round; stroke-width:0" 
   transform="translate(0.00 0.00) scale(1.00 1.00)">
<ellipse cx="27953" cy="26685" rx="157" ry="157"  /> 
</g>
<g style="fill:#808000; fill-opacity:1.00; stroke:#808000; stroke-opacity:1.00; stroke-linecap:round; stroke-linejoin:round; stroke-width:0" 
   transform="translate(0.00 0.00) scale(1.00 1.00)">
<ellipse cx="27953" cy="22685" rx="393" ry="393"  /> 
</g>
<g style="fill:#FFFFFF; fill-opacity:1.00; stroke:#808000; stroke-opacity:1.00; stroke-linecap:round; stroke-linejoin:round; stroke-width:0" 
   transform="translate(0.00 0.00) scale(1.00 1.00)">
<ellipse cx="27953" cy="22685" rx="157" ry="157"  /> 
</g>
<g style="fill:#FFFFFF; fill-opacity:1.00; stroke:#0000C0; stroke-opacity:1.00; stroke-linecap:round; stroke-linejoin:round; stroke-width:0" 
   transform="translate(0.00 0.00) scale(1.00 1.00)">
<path d="M26451 24685 L26455 24685" /> 
<path d="M26453 24683 L26453 24687" /> 
</g>
<g style="fill:#C0C0C0; fill-opacity:0.0; stroke:#C0C0C0; stroke-opacity:1.00; stroke-linecap:round; stroke-linejoin:round; stroke-width:120" 
   transform="translate(0.00 0.00) scale(1.00 1.00)">
<path d="M26639 24784 L26667 24813" /> 
<path d="M26667 24813 L26696 24899" /> 
<path d="M26696 24899 L26696 24956" /> 
<path d="M26696 24956 L26667 25041" /> 
<path d="M26667 25041 L26610 25099" /> 
<path d="M26610 25099 L26553 25127" /> 
<path d="M26553 25127 L26439 25156" /> 
<path d="M26439 25156 L26353 25156" /> 
<path d="M26353 25156 L26239 25127" /> 
<path d="M26239 25127 L26182 25099" /> 
<path d="M26182 25099 L26124 25041" /> 
<path d="M26124 25041 L26096 24956" /> 
<path d="M26096 24956 L26096 24899" /> 
<path d="M26096 24899 L26124 24813" /> 
<path d="M26124 24813 L26153 24784" /> 
<g style = "stroke-linecap:round;" > 
<path d="M26153 24784 L26153 24784" /> 
</g><path d="M26096 24584 L26096 24213" /> 
<path d="M26096 24213 L26324 24413" /> 
<path d="M26324 24413 L26324 24327" /> 
<path d="M26324 24327 L26353 24270" /> 
<path d="M26353 24270 L26382 24241" /> 
<path d="M26382 24241 L26439 24213" /> 
<path d="M26439 24213 L26582 24213" /> 
<path d="M26582 24213 L26639 24241" /> 
<path d="M26639 24241 L26667 24270" /> 
<path d="M26667 24270 L26696 24327" /> 
<path d="M26696 24327 L26696 24499" /> 
<path d="M26696 24499 L26667 24556" /> 
<path d="M26667 24556 L26639 24584" /> 
<g style = "stroke-linecap:round;" > 
<path d="M26639 24584 L26639 24584" /> 
</g></g>
<g style="fill:#C0C0C0; fill-opacity:0.0; stroke:#0000C0; stroke-opacity:1.00; stroke-linecap:round; stroke-linejoin:round; stroke-width:0" 
   transform="translate(0.00 0.00) scale(1.00 1.00)">
<path d="M29251 24685 L29255 24685" /> 
<path d="M29253 24683 L29253 24687" /> 
</g>
<g style="fill:#C0C0C0; fill-opacity:0.0; stroke:#C0C0C0; stroke-opacity:1.00; stroke-linecap:round; stroke-linejoin:round; stroke-width:120" 
   transform="translate(0.00 0.00) scale(1.00 1.00)">
<path d="M29439 24499 L29467 24528" /> 
<path d="M29467 24528 L29496 24614" /> 
<path d="M29496 24614 L29496 24671" /> 
<path d="M29496 24671 L29467 24756" /> 
<path d="M29467 24756 L29410 24814" /> 
<path d="M29410 24814 L29353 24842" /> 
<path d="M29353 24842 L29239 24871" /> 
<path d="M29239 24871 L29153 24871" /> 
<path d="M29153 24871 L29039 24842" /> 
<path d="M29039 24842 L28982 24814" /> 
<path d="M28982 24814 L28924 24756" /> 
<path d="M28924 24756 L28896 24671" /> 
<path d="M28896 24671 L28896 24614" /> 
<path d="M28896 24614 L28924 24528" /> 
<path d="M28924 24528 L28953 24499" /> 
<g style = "stroke-linecap:round;" > 
<path d="M28953 24499 L28953 24499" /> 
</g></g>
<g style="fill:#C0C0C0; fill-opacity:0.0; stroke:#00A0A0; stroke-opacity:1.00; stroke-linecap:round; stroke-linejoin:round; stroke-width:98" 
   transform="translate(0.00 0.00) scale(1.00 1.00)">
<path d="M28733 22085 L28733 27285" /> 
<path d="M27133 27285 L27133 22085" /> 
<path d="M28733 22085 L27133 22085" /> 
<path d="M27133 27285 L28733 27285" /> 
</g>
<g style="fill:#808000; fill-opacity:1.00; stroke:#808000; stroke-opacity:1.00; stroke-linecap:round; stroke-linejoin:round; stroke-width:0" 
   transform="translate(0.00 0.00) scale(1.00 1.00)">
<ellipse cx="27953" cy="18339" rx="393" ry="393"  /> 
</g>
<g style="fill:#FFFFFF; fill-opacity:1.00; stroke:#808000; stroke-opacity:1.00; stroke-linecap:round; stroke-linejoin:round; stroke-width:0" 
   transform="translate(0.00 0.00) scale(1.00 1.00)">
<ellipse cx="27953" cy="18339" rx="157" ry="157"  /> 
</g>
<g style="fill:#808000; fill-opacity:1.00; stroke:#808000; stroke-opacity:1.00; stroke-linecap:round; stroke-linejoin:round; stroke-width:0" 
   transform="translate(0.00 0.00) scale(1.00 1.00)">
<ellipse cx="27953" cy="14339" rx="393" ry="393"  /> 
</g>
<g style="fill:#FFFFFF; fill-opacity:1.00; stroke:#808000; stroke-opacity:1.00; stroke-linecap:round; stroke-linejoin:round; stroke-width:0" 
   transform="translate(0.00 0.00) scale(1.00 1.00)">
<ellipse cx="27953" cy="14339" rx="157" ry="157"  /> 
</g>
<g style="fill:#FFFFFF; fill-opacity:1.00; stroke:#0000C0; stroke-opacity:1.00; stroke-linecap:round; stroke-linejoin:round; stroke-width:0" 
   transform="translate(0.00 0.00) scale(1.00 1.00)">
<path d="M26451 16339 L26455 16339" /> 
<path d="M26453 16337 L26453 16341" /> 
</g>
<g style="fill:#C0C0C0; fill-opacity:0.0; stroke:#C0C0C0; stroke-opacity:1.00; stroke-linecap:round; stroke-linejoin:round; stroke-width:120" 
   transform="translate(0.00 0.00) scale(1.00 1.00)">
<path d="M26639 16438 L26667 16467" /> 
<path d="M26667 16467 L26696 16553" /> 
<path d="M26696 16553 L26696 16610" /> 
<path d="M26696 16610 L26667 16695" /> 
<path d="M26667 16695 L26610 16753" /> 
<path d="M26610 16753 L26553 16781" /> 
<path d="M26553 16781 L26439 16810" /> 
<path d="M26439 16810 L26353 16810" /> 
<path d="M26353 16810 L26239 16781" /> 
<path d="M26239 16781 L26182 16753" /> 
<path d="M26182 16753 L26124 16695" /> 
<path d="M26124 16695 L26096 16610" /> 
<path d="M26096 16610 L26096 16553" /> 
<path d="M26096 16553 L26124 16467" /> 
<path d="M26124 16467 L26153 16438" /> 
<g style = "stroke-linecap:round;" > 
<path d="M26153 16438 L26153 16438" /> 
</g><path d="M26296 15924 L26696 15924" /> 
<g style = "stroke-linecap:round;" > 
<path d="M26696 15924 L26696 15924" /> 
</g><path d="M26067 16067 L26496 16210" /> 
<path d="M26496 16210 L26496 15838" /> 
<g style = "stroke-linecap:round;" > 
<path d="M26496 15838 L26496 15838" /> 
</g></g>
<g style="fill:#C0C0C0; fill-opacity:0.0; stroke:#0000C0; stroke-opacity:1.00; stroke-linecap:round; stroke-linejoin:round; stroke-width:0" 
   transform="translate(0.00 0.00) scale(1.00 1.00)">
<path d="M29251 16339 L29255 16339" /> 
<path d="M29253 16337 L29253 16341" /> 
</g>
<g style="fill:#C0C0C0; fill-opacity:0.0; stroke:#C0C0C0; stroke-opacity:1.00; stroke-linecap:round; stroke-linejoin:round; stroke-width:120" 
   transform="translate(0.00 0.00) scale(1.00 1.00)">
<path d="M29439 16153 L29467 16182" /> 
<path d="M29467 16182 L29496 16268" /> 
<path d="M29496 16268 L29496 16325" /> 
<path d="M29496 16325 L29467 16410" /> 
<path d="M29467 16410 L29410 16468" /> 
<path d="M29410 16468 L29353 16496" /> 
<path d="M29353 16496 L29239 16525" /> 
<path d="M29239 16525 L29153 16525" /> 
<path d="M29153 16525 L29039 16496" /> 
<path d="M29039 16496 L28982 16468" /> 
<path d="M28982 16468 L28924 16410" /> 
<path d="M28924 16410 L28896 16325" /> 
<path d="M28896 16325 L28896 16268" /> 
<path d="M28896 16268 L28924 16182" /> 
<path d="M28924 16182 L28953 16153" /> 
<g style = "stroke-linecap:round;" > 
<path d="M28953 16153 L28953 16153" /> 
</g></g>
<g style="fill:#C0C0C0; fill-opacity:0.0; stroke:#00A0A0; stroke-opacity:1.00; stroke-linecap:round; stroke-linejoin:round; stroke-width:98" 
   transform="translate(0.00 0.00) scale(1.00 1.00)">
<path d="M28733 13739 L28733 18939" /> 
<path d="M27133 18939 L27133 13739" /> 
<path d="M28733 13739 L27133 13739" /> 
<path d="M27133 18939 L28733 18939" /> 
</g> 
</svg> 
