G04 (created by PCBNEW-RS274X (2012-01-19 BZR 3256)-stable) date 31/05/2012 03:32:05 p.m.*
G01*
G70*
G90*
%MOIN*%
G04 Gerber Fmt 3.4, Leading zero omitted, Abs format*
%FSLAX34Y34*%
G04 APERTURE LIST*
%ADD10C,0.006000*%
%ADD11C,0.199400*%
%ADD12R,0.078700X0.078700*%
%ADD13C,0.078700*%
%ADD14C,0.100000*%
%ADD15R,0.100000X0.100000*%
%ADD16C,0.126000*%
%ADD17C,0.149600*%
G04 APERTURE END LIST*
G54D10*
G54D11*
X10669Y-20551D03*
X20787Y-20591D03*
X66260Y-28543D03*
X65748Y-12717D03*
G54D12*
X42953Y-12752D03*
G54D13*
X42953Y-15752D03*
G54D12*
X34567Y-12752D03*
G54D13*
X34567Y-15752D03*
G54D12*
X51457Y-12713D03*
G54D13*
X51457Y-15713D03*
G54D12*
X59567Y-12713D03*
G54D13*
X59567Y-15713D03*
G54D12*
X34567Y-25587D03*
G54D13*
X34567Y-28587D03*
G54D12*
X51496Y-25587D03*
G54D13*
X51496Y-28587D03*
G54D12*
X59528Y-25626D03*
G54D13*
X59528Y-28626D03*
G54D12*
X42992Y-25587D03*
G54D13*
X42992Y-28587D03*
G54D11*
X66260Y-21339D03*
G54D14*
X13937Y-22315D03*
G54D15*
X13937Y-28315D03*
G54D14*
X13858Y-18591D03*
G54D15*
X13858Y-12591D03*
G54D14*
X23780Y-22433D03*
G54D15*
X23780Y-28433D03*
G54D14*
X23780Y-18827D03*
G54D15*
X23780Y-12827D03*
G54D13*
X17795Y-26606D03*
X17795Y-22606D03*
X17795Y-18496D03*
X17795Y-14496D03*
X27953Y-26685D03*
X27953Y-22685D03*
X27953Y-18339D03*
X27953Y-14339D03*
G54D16*
X18709Y-28315D02*
X18827Y-28433D01*
G54D17*
X13937Y-28315D02*
X17842Y-28315D01*
X66260Y-28543D02*
X14165Y-28543D01*
X14165Y-28543D02*
X13937Y-28315D01*
G54D16*
X34567Y-28587D02*
X27799Y-28587D01*
X27799Y-28587D02*
X27756Y-28544D01*
X66260Y-28543D02*
X59611Y-28543D01*
X59611Y-28543D02*
X59528Y-28626D01*
X42992Y-28587D02*
X34567Y-28587D01*
X59528Y-28626D02*
X51496Y-28587D01*
X18827Y-28433D02*
X23780Y-28433D01*
X13937Y-28315D02*
X18709Y-28315D01*
X27756Y-28544D02*
X27645Y-28433D01*
X27645Y-28433D02*
X23780Y-28433D01*
G54D17*
X27953Y-28125D02*
X27645Y-28433D01*
X27953Y-26685D02*
X27953Y-28125D01*
X17842Y-28315D02*
X17795Y-28268D01*
X17795Y-28268D02*
X17795Y-26606D01*
G54D16*
X59567Y-12713D02*
X65744Y-12713D01*
X42992Y-12713D02*
X42953Y-12752D01*
X34567Y-12752D02*
X42953Y-12752D01*
X51457Y-12713D02*
X42992Y-12713D01*
G54D17*
X23780Y-12827D02*
X18103Y-12827D01*
G54D16*
X65744Y-12713D02*
X65748Y-12717D01*
X51457Y-12713D02*
X59567Y-12713D01*
G54D17*
X13984Y-12717D02*
X13858Y-12591D01*
G54D16*
X20283Y-12591D02*
X23544Y-12591D01*
X23544Y-12591D02*
X23780Y-12827D01*
X13858Y-12591D02*
X20283Y-12591D01*
G54D17*
X27126Y-12717D02*
X13984Y-12717D01*
X65748Y-12717D02*
X27126Y-12717D01*
X27953Y-13544D02*
X27126Y-12717D01*
X27953Y-14339D02*
X27953Y-13544D01*
X18103Y-12827D02*
X17795Y-13135D01*
X17795Y-13135D02*
X17795Y-14496D01*
X51457Y-25548D02*
X51496Y-25587D01*
X59567Y-15713D02*
X59567Y-25587D01*
X59567Y-25587D02*
X59528Y-25626D01*
X51457Y-15713D02*
X51457Y-25548D01*
G54D16*
X61654Y-21339D02*
X59567Y-21339D01*
G54D17*
X66260Y-21339D02*
X34567Y-21339D01*
G54D16*
X42992Y-24603D02*
X42992Y-25587D01*
X34567Y-21339D02*
X35984Y-21339D01*
X42992Y-21575D02*
X42992Y-24603D01*
X51653Y-21339D02*
X51417Y-21103D01*
X42992Y-24603D02*
X42992Y-25587D01*
X34803Y-21575D02*
X34567Y-21339D01*
X59567Y-15713D02*
X59567Y-21339D01*
X59567Y-21339D02*
X66260Y-21339D01*
X59528Y-25626D02*
X59449Y-21457D01*
X59449Y-21457D02*
X59567Y-21339D01*
X51457Y-15713D02*
X51417Y-21103D01*
G54D17*
X34567Y-21339D02*
X34803Y-21575D01*
X34567Y-25587D02*
X34567Y-21339D01*
X42953Y-25548D02*
X42992Y-25587D01*
X42953Y-15752D02*
X42953Y-25548D01*
X51141Y-21299D02*
X51417Y-21575D01*
G54D16*
X66260Y-21339D02*
X61654Y-21339D01*
G54D17*
X42992Y-25587D02*
X42992Y-21575D01*
X42953Y-21536D02*
X42992Y-21575D01*
X42953Y-21299D02*
X42953Y-21536D01*
X42953Y-15752D02*
X42953Y-21299D01*
X42756Y-21299D02*
X42953Y-21299D01*
X34607Y-21299D02*
X42756Y-21299D01*
X34567Y-21339D02*
X34607Y-21299D01*
X34567Y-15752D02*
X34567Y-21339D01*
X42756Y-21299D02*
X51141Y-21299D01*
G54D16*
X51417Y-21103D02*
X51653Y-21339D01*
X34567Y-25587D02*
X34606Y-22717D01*
X34606Y-22717D02*
X35984Y-21339D01*
X34567Y-15752D02*
X34567Y-19922D01*
X34567Y-19922D02*
X35984Y-21339D01*
X51496Y-25587D02*
X51417Y-21575D01*
X51417Y-21575D02*
X51653Y-21339D01*
X51417Y-21575D02*
X51457Y-15713D01*
X51417Y-21575D02*
X51535Y-21575D01*
X51535Y-21575D02*
X51417Y-21575D01*
G54D17*
X20787Y-20591D02*
X24173Y-20591D01*
X27953Y-20394D02*
X27953Y-18339D01*
X23780Y-18827D02*
X23780Y-19685D01*
X23780Y-19685D02*
X23780Y-22433D01*
X23780Y-20591D02*
X24173Y-20591D01*
X23780Y-18827D02*
X23780Y-20591D01*
X23780Y-22433D02*
X23780Y-20591D01*
X23858Y-20669D02*
X24173Y-20669D01*
X24173Y-20669D02*
X24173Y-20591D01*
X27678Y-20669D02*
X27953Y-20394D01*
X24173Y-20669D02*
X27678Y-20669D01*
X27953Y-20944D02*
X27678Y-20669D01*
X27953Y-22685D02*
X27953Y-20944D01*
X23780Y-20591D02*
X23858Y-20669D01*
X13937Y-22315D02*
X13937Y-20708D01*
X13937Y-20708D02*
X13780Y-20551D01*
X10669Y-20551D02*
X13780Y-20551D01*
X13780Y-20551D02*
X13858Y-20473D01*
X13858Y-20473D02*
X13858Y-18591D01*
G54D16*
X13858Y-20473D02*
X13780Y-20551D01*
X13858Y-22236D02*
X13937Y-22315D01*
X13858Y-20473D02*
X13858Y-22236D01*
X13780Y-20551D02*
X13858Y-20473D01*
G54D17*
X17795Y-20591D02*
X17795Y-22606D01*
X17795Y-18496D02*
X17795Y-20591D01*
X13976Y-20591D02*
X13858Y-20473D01*
X17795Y-20591D02*
X13976Y-20591D01*
M02*
