G04 (created by PCBNEW-RS274X (2012-01-19 BZR 3256)-stable) date 31/05/2012 03:32:05 p.m.*
G01*
G70*
G90*
%MOIN*%
G04 Gerber Fmt 3.4, Leading zero omitted, Abs format*
%FSLAX34Y34*%
G04 APERTURE LIST*
%ADD10C,0.006000*%
%ADD11C,0.015000*%
%ADD12C,0.010000*%
%ADD13C,0.012000*%
%ADD14C,0.009800*%
G04 APERTURE END LIST*
G54D10*
G54D11*
X11569Y-20551D02*
X11551Y-20725D01*
X11501Y-20893D01*
X11418Y-21049D01*
X11307Y-21185D01*
X11172Y-21297D01*
X11017Y-21380D01*
X10849Y-21432D01*
X10675Y-21450D01*
X10501Y-21435D01*
X10332Y-21385D01*
X10177Y-21304D01*
X10040Y-21194D01*
X09927Y-21059D01*
X09842Y-20905D01*
X09789Y-20738D01*
X09770Y-20563D01*
X09784Y-20389D01*
X09833Y-20220D01*
X09913Y-20064D01*
X10022Y-19926D01*
X10156Y-19812D01*
X10309Y-19727D01*
X10476Y-19672D01*
X10651Y-19652D01*
X10825Y-19665D01*
X10994Y-19712D01*
X11151Y-19792D01*
X11289Y-19900D01*
X11404Y-20033D01*
X11491Y-20185D01*
X11546Y-20352D01*
X11568Y-20526D01*
X11569Y-20551D01*
X21687Y-20591D02*
X21669Y-20765D01*
X21619Y-20933D01*
X21536Y-21089D01*
X21425Y-21225D01*
X21290Y-21337D01*
X21135Y-21420D01*
X20967Y-21472D01*
X20793Y-21490D01*
X20619Y-21475D01*
X20450Y-21425D01*
X20295Y-21344D01*
X20158Y-21234D01*
X20045Y-21099D01*
X19960Y-20945D01*
X19907Y-20778D01*
X19888Y-20603D01*
X19902Y-20429D01*
X19951Y-20260D01*
X20031Y-20104D01*
X20140Y-19966D01*
X20274Y-19852D01*
X20427Y-19767D01*
X20594Y-19712D01*
X20769Y-19692D01*
X20943Y-19705D01*
X21112Y-19752D01*
X21269Y-19832D01*
X21407Y-19940D01*
X21522Y-20073D01*
X21609Y-20225D01*
X21664Y-20392D01*
X21686Y-20566D01*
X21687Y-20591D01*
X67160Y-28543D02*
X67142Y-28717D01*
X67092Y-28885D01*
X67009Y-29041D01*
X66898Y-29177D01*
X66763Y-29289D01*
X66608Y-29372D01*
X66440Y-29424D01*
X66266Y-29442D01*
X66092Y-29427D01*
X65923Y-29377D01*
X65768Y-29296D01*
X65631Y-29186D01*
X65518Y-29051D01*
X65433Y-28897D01*
X65380Y-28730D01*
X65361Y-28555D01*
X65375Y-28381D01*
X65424Y-28212D01*
X65504Y-28056D01*
X65613Y-27918D01*
X65747Y-27804D01*
X65900Y-27719D01*
X66067Y-27664D01*
X66242Y-27644D01*
X66416Y-27657D01*
X66585Y-27704D01*
X66742Y-27784D01*
X66880Y-27892D01*
X66995Y-28025D01*
X67082Y-28177D01*
X67137Y-28344D01*
X67159Y-28518D01*
X67160Y-28543D01*
X66648Y-12717D02*
X66630Y-12891D01*
X66580Y-13059D01*
X66497Y-13215D01*
X66386Y-13351D01*
X66251Y-13463D01*
X66096Y-13546D01*
X65928Y-13598D01*
X65754Y-13616D01*
X65580Y-13601D01*
X65411Y-13551D01*
X65256Y-13470D01*
X65119Y-13360D01*
X65006Y-13225D01*
X64921Y-13071D01*
X64868Y-12904D01*
X64849Y-12729D01*
X64863Y-12555D01*
X64912Y-12386D01*
X64992Y-12230D01*
X65101Y-12092D01*
X65235Y-11978D01*
X65388Y-11893D01*
X65555Y-11838D01*
X65730Y-11818D01*
X65904Y-11831D01*
X66073Y-11878D01*
X66230Y-11958D01*
X66368Y-12066D01*
X66483Y-12199D01*
X66570Y-12351D01*
X66625Y-12518D01*
X66647Y-12692D01*
X66648Y-12717D01*
G54D12*
X44303Y-17052D02*
X43453Y-17302D01*
X41653Y-17052D02*
X42103Y-17202D01*
X46103Y-14252D02*
X46043Y-14863D01*
X45865Y-15452D01*
X45576Y-15995D01*
X45188Y-16471D01*
X44714Y-16863D01*
X44173Y-17155D01*
X43586Y-17337D01*
X42974Y-17401D01*
X42363Y-17346D01*
X41773Y-17172D01*
X41229Y-16887D01*
X40750Y-16502D01*
X40354Y-16031D01*
X40058Y-15492D01*
X39872Y-14906D01*
X39804Y-14295D01*
X39855Y-13684D01*
X40025Y-13093D01*
X40306Y-12546D01*
X40688Y-12064D01*
X41156Y-11666D01*
X41692Y-11366D01*
X42277Y-11176D01*
X42888Y-11103D01*
X43499Y-11150D01*
X44092Y-11316D01*
X44640Y-11593D01*
X45125Y-11971D01*
X45527Y-12437D01*
X45830Y-12971D01*
X46024Y-13555D01*
X46101Y-14165D01*
X46103Y-14252D01*
X43753Y-17202D02*
X42153Y-17202D01*
X41803Y-17102D02*
X44053Y-17102D01*
X44053Y-17102D02*
X43703Y-17102D01*
X42403Y-17352D02*
X43453Y-17352D01*
X43803Y-17252D02*
X42103Y-17252D01*
X41853Y-17152D02*
X44053Y-17152D01*
X44053Y-17152D02*
X44003Y-17152D01*
X41553Y-17052D02*
X44353Y-17052D01*
X42403Y-16802D02*
X42053Y-16802D01*
X35917Y-17052D02*
X35067Y-17302D01*
X33267Y-17052D02*
X33717Y-17202D01*
X37717Y-14252D02*
X37657Y-14863D01*
X37479Y-15452D01*
X37190Y-15995D01*
X36802Y-16471D01*
X36328Y-16863D01*
X35787Y-17155D01*
X35200Y-17337D01*
X34588Y-17401D01*
X33977Y-17346D01*
X33387Y-17172D01*
X32843Y-16887D01*
X32364Y-16502D01*
X31968Y-16031D01*
X31672Y-15492D01*
X31486Y-14906D01*
X31418Y-14295D01*
X31469Y-13684D01*
X31639Y-13093D01*
X31920Y-12546D01*
X32302Y-12064D01*
X32770Y-11666D01*
X33306Y-11366D01*
X33891Y-11176D01*
X34502Y-11103D01*
X35113Y-11150D01*
X35706Y-11316D01*
X36254Y-11593D01*
X36739Y-11971D01*
X37141Y-12437D01*
X37444Y-12971D01*
X37638Y-13555D01*
X37715Y-14165D01*
X37717Y-14252D01*
X35367Y-17202D02*
X33767Y-17202D01*
X33417Y-17102D02*
X35667Y-17102D01*
X35667Y-17102D02*
X35317Y-17102D01*
X34017Y-17352D02*
X35067Y-17352D01*
X35417Y-17252D02*
X33717Y-17252D01*
X33467Y-17152D02*
X35667Y-17152D01*
X35667Y-17152D02*
X35617Y-17152D01*
X33167Y-17052D02*
X35967Y-17052D01*
X34017Y-16802D02*
X33667Y-16802D01*
X52807Y-17013D02*
X51957Y-17263D01*
X50157Y-17013D02*
X50607Y-17163D01*
X54607Y-14213D02*
X54547Y-14824D01*
X54369Y-15413D01*
X54080Y-15956D01*
X53692Y-16432D01*
X53218Y-16824D01*
X52677Y-17116D01*
X52090Y-17298D01*
X51478Y-17362D01*
X50867Y-17307D01*
X50277Y-17133D01*
X49733Y-16848D01*
X49254Y-16463D01*
X48858Y-15992D01*
X48562Y-15453D01*
X48376Y-14867D01*
X48308Y-14256D01*
X48359Y-13645D01*
X48529Y-13054D01*
X48810Y-12507D01*
X49192Y-12025D01*
X49660Y-11627D01*
X50196Y-11327D01*
X50781Y-11137D01*
X51392Y-11064D01*
X52003Y-11111D01*
X52596Y-11277D01*
X53144Y-11554D01*
X53629Y-11932D01*
X54031Y-12398D01*
X54334Y-12932D01*
X54528Y-13516D01*
X54605Y-14126D01*
X54607Y-14213D01*
X52257Y-17163D02*
X50657Y-17163D01*
X50307Y-17063D02*
X52557Y-17063D01*
X52557Y-17063D02*
X52207Y-17063D01*
X50907Y-17313D02*
X51957Y-17313D01*
X52307Y-17213D02*
X50607Y-17213D01*
X50357Y-17113D02*
X52557Y-17113D01*
X52557Y-17113D02*
X52507Y-17113D01*
X50057Y-17013D02*
X52857Y-17013D01*
X50907Y-16763D02*
X50557Y-16763D01*
X60917Y-17013D02*
X60067Y-17263D01*
X58267Y-17013D02*
X58717Y-17163D01*
X62717Y-14213D02*
X62657Y-14824D01*
X62479Y-15413D01*
X62190Y-15956D01*
X61802Y-16432D01*
X61328Y-16824D01*
X60787Y-17116D01*
X60200Y-17298D01*
X59588Y-17362D01*
X58977Y-17307D01*
X58387Y-17133D01*
X57843Y-16848D01*
X57364Y-16463D01*
X56968Y-15992D01*
X56672Y-15453D01*
X56486Y-14867D01*
X56418Y-14256D01*
X56469Y-13645D01*
X56639Y-13054D01*
X56920Y-12507D01*
X57302Y-12025D01*
X57770Y-11627D01*
X58306Y-11327D01*
X58891Y-11137D01*
X59502Y-11064D01*
X60113Y-11111D01*
X60706Y-11277D01*
X61254Y-11554D01*
X61739Y-11932D01*
X62141Y-12398D01*
X62444Y-12932D01*
X62638Y-13516D01*
X62715Y-14126D01*
X62717Y-14213D01*
X60367Y-17163D02*
X58767Y-17163D01*
X58417Y-17063D02*
X60667Y-17063D01*
X60667Y-17063D02*
X60317Y-17063D01*
X59017Y-17313D02*
X60067Y-17313D01*
X60417Y-17213D02*
X58717Y-17213D01*
X58467Y-17113D02*
X60667Y-17113D01*
X60667Y-17113D02*
X60617Y-17113D01*
X58167Y-17013D02*
X60967Y-17013D01*
X59017Y-16763D02*
X58667Y-16763D01*
X35917Y-29887D02*
X35067Y-30137D01*
X33267Y-29887D02*
X33717Y-30037D01*
X37717Y-27087D02*
X37657Y-27698D01*
X37479Y-28287D01*
X37190Y-28830D01*
X36802Y-29306D01*
X36328Y-29698D01*
X35787Y-29990D01*
X35200Y-30172D01*
X34588Y-30236D01*
X33977Y-30181D01*
X33387Y-30007D01*
X32843Y-29722D01*
X32364Y-29337D01*
X31968Y-28866D01*
X31672Y-28327D01*
X31486Y-27741D01*
X31418Y-27130D01*
X31469Y-26519D01*
X31639Y-25928D01*
X31920Y-25381D01*
X32302Y-24899D01*
X32770Y-24501D01*
X33306Y-24201D01*
X33891Y-24011D01*
X34502Y-23938D01*
X35113Y-23985D01*
X35706Y-24151D01*
X36254Y-24428D01*
X36739Y-24806D01*
X37141Y-25272D01*
X37444Y-25806D01*
X37638Y-26390D01*
X37715Y-27000D01*
X37717Y-27087D01*
X35367Y-30037D02*
X33767Y-30037D01*
X33417Y-29937D02*
X35667Y-29937D01*
X35667Y-29937D02*
X35317Y-29937D01*
X34017Y-30187D02*
X35067Y-30187D01*
X35417Y-30087D02*
X33717Y-30087D01*
X33467Y-29987D02*
X35667Y-29987D01*
X35667Y-29987D02*
X35617Y-29987D01*
X33167Y-29887D02*
X35967Y-29887D01*
X34017Y-29637D02*
X33667Y-29637D01*
X52846Y-29887D02*
X51996Y-30137D01*
X50196Y-29887D02*
X50646Y-30037D01*
X54646Y-27087D02*
X54586Y-27698D01*
X54408Y-28287D01*
X54119Y-28830D01*
X53731Y-29306D01*
X53257Y-29698D01*
X52716Y-29990D01*
X52129Y-30172D01*
X51517Y-30236D01*
X50906Y-30181D01*
X50316Y-30007D01*
X49772Y-29722D01*
X49293Y-29337D01*
X48897Y-28866D01*
X48601Y-28327D01*
X48415Y-27741D01*
X48347Y-27130D01*
X48398Y-26519D01*
X48568Y-25928D01*
X48849Y-25381D01*
X49231Y-24899D01*
X49699Y-24501D01*
X50235Y-24201D01*
X50820Y-24011D01*
X51431Y-23938D01*
X52042Y-23985D01*
X52635Y-24151D01*
X53183Y-24428D01*
X53668Y-24806D01*
X54070Y-25272D01*
X54373Y-25806D01*
X54567Y-26390D01*
X54644Y-27000D01*
X54646Y-27087D01*
X52296Y-30037D02*
X50696Y-30037D01*
X50346Y-29937D02*
X52596Y-29937D01*
X52596Y-29937D02*
X52246Y-29937D01*
X50946Y-30187D02*
X51996Y-30187D01*
X52346Y-30087D02*
X50646Y-30087D01*
X50396Y-29987D02*
X52596Y-29987D01*
X52596Y-29987D02*
X52546Y-29987D01*
X50096Y-29887D02*
X52896Y-29887D01*
X50946Y-29637D02*
X50596Y-29637D01*
X60878Y-29926D02*
X60028Y-30176D01*
X58228Y-29926D02*
X58678Y-30076D01*
X62678Y-27126D02*
X62618Y-27737D01*
X62440Y-28326D01*
X62151Y-28869D01*
X61763Y-29345D01*
X61289Y-29737D01*
X60748Y-30029D01*
X60161Y-30211D01*
X59549Y-30275D01*
X58938Y-30220D01*
X58348Y-30046D01*
X57804Y-29761D01*
X57325Y-29376D01*
X56929Y-28905D01*
X56633Y-28366D01*
X56447Y-27780D01*
X56379Y-27169D01*
X56430Y-26558D01*
X56600Y-25967D01*
X56881Y-25420D01*
X57263Y-24938D01*
X57731Y-24540D01*
X58267Y-24240D01*
X58852Y-24050D01*
X59463Y-23977D01*
X60074Y-24024D01*
X60667Y-24190D01*
X61215Y-24467D01*
X61700Y-24845D01*
X62102Y-25311D01*
X62405Y-25845D01*
X62599Y-26429D01*
X62676Y-27039D01*
X62678Y-27126D01*
X60328Y-30076D02*
X58728Y-30076D01*
X58378Y-29976D02*
X60628Y-29976D01*
X60628Y-29976D02*
X60278Y-29976D01*
X58978Y-30226D02*
X60028Y-30226D01*
X60378Y-30126D02*
X58678Y-30126D01*
X58428Y-30026D02*
X60628Y-30026D01*
X60628Y-30026D02*
X60578Y-30026D01*
X58128Y-29926D02*
X60928Y-29926D01*
X58978Y-29676D02*
X58628Y-29676D01*
X44342Y-29887D02*
X43492Y-30137D01*
X41692Y-29887D02*
X42142Y-30037D01*
X46142Y-27087D02*
X46082Y-27698D01*
X45904Y-28287D01*
X45615Y-28830D01*
X45227Y-29306D01*
X44753Y-29698D01*
X44212Y-29990D01*
X43625Y-30172D01*
X43013Y-30236D01*
X42402Y-30181D01*
X41812Y-30007D01*
X41268Y-29722D01*
X40789Y-29337D01*
X40393Y-28866D01*
X40097Y-28327D01*
X39911Y-27741D01*
X39843Y-27130D01*
X39894Y-26519D01*
X40064Y-25928D01*
X40345Y-25381D01*
X40727Y-24899D01*
X41195Y-24501D01*
X41731Y-24201D01*
X42316Y-24011D01*
X42927Y-23938D01*
X43538Y-23985D01*
X44131Y-24151D01*
X44679Y-24428D01*
X45164Y-24806D01*
X45566Y-25272D01*
X45869Y-25806D01*
X46063Y-26390D01*
X46140Y-27000D01*
X46142Y-27087D01*
X43792Y-30037D02*
X42192Y-30037D01*
X41842Y-29937D02*
X44092Y-29937D01*
X44092Y-29937D02*
X43742Y-29937D01*
X42442Y-30187D02*
X43492Y-30187D01*
X43842Y-30087D02*
X42142Y-30087D01*
X41892Y-29987D02*
X44092Y-29987D01*
X44092Y-29987D02*
X44042Y-29987D01*
X41592Y-29887D02*
X44392Y-29887D01*
X42442Y-29637D02*
X42092Y-29637D01*
G54D11*
X67160Y-21339D02*
X67142Y-21513D01*
X67092Y-21681D01*
X67009Y-21837D01*
X66898Y-21973D01*
X66763Y-22085D01*
X66608Y-22168D01*
X66440Y-22220D01*
X66266Y-22238D01*
X66092Y-22223D01*
X65923Y-22173D01*
X65768Y-22092D01*
X65631Y-21982D01*
X65518Y-21847D01*
X65433Y-21693D01*
X65380Y-21526D01*
X65361Y-21351D01*
X65375Y-21177D01*
X65424Y-21008D01*
X65504Y-20852D01*
X65613Y-20714D01*
X65747Y-20600D01*
X65900Y-20515D01*
X66067Y-20460D01*
X66242Y-20440D01*
X66416Y-20453D01*
X66585Y-20500D01*
X66742Y-20580D01*
X66880Y-20688D01*
X66995Y-20821D01*
X67082Y-20973D01*
X67137Y-21140D01*
X67159Y-21314D01*
X67160Y-21339D01*
G54D13*
X15187Y-23065D02*
X12687Y-23065D01*
X12687Y-23065D02*
X12687Y-27565D01*
X12687Y-27565D02*
X15187Y-27565D01*
X15187Y-27565D02*
X15187Y-23065D01*
X15187Y-27315D02*
X12687Y-27315D01*
X12687Y-27065D02*
X15187Y-27065D01*
X13937Y-27565D02*
X13937Y-28315D01*
X13937Y-23065D02*
X13937Y-22315D01*
X12608Y-17841D02*
X15108Y-17841D01*
X15108Y-17841D02*
X15108Y-13341D01*
X15108Y-13341D02*
X12608Y-13341D01*
X12608Y-13341D02*
X12608Y-17841D01*
X12608Y-13591D02*
X15108Y-13591D01*
X15108Y-13841D02*
X12608Y-13841D01*
X13858Y-13341D02*
X13858Y-12591D01*
X13858Y-17841D02*
X13858Y-18591D01*
X25030Y-23183D02*
X22530Y-23183D01*
X22530Y-23183D02*
X22530Y-27683D01*
X22530Y-27683D02*
X25030Y-27683D01*
X25030Y-27683D02*
X25030Y-23183D01*
X25030Y-27433D02*
X22530Y-27433D01*
X22530Y-27183D02*
X25030Y-27183D01*
X23780Y-27683D02*
X23780Y-28433D01*
X23780Y-23183D02*
X23780Y-22433D01*
X22530Y-18077D02*
X25030Y-18077D01*
X25030Y-18077D02*
X25030Y-13577D01*
X25030Y-13577D02*
X22530Y-13577D01*
X22530Y-13577D02*
X22530Y-18077D01*
X22530Y-13827D02*
X25030Y-13827D01*
X25030Y-14077D02*
X22530Y-14077D01*
X23780Y-13577D02*
X23780Y-12827D01*
X23780Y-18077D02*
X23780Y-18827D01*
G54D14*
X18575Y-22006D02*
X18575Y-27206D01*
X16975Y-27206D02*
X16975Y-22006D01*
X18575Y-22006D02*
X16975Y-22006D01*
X16975Y-27206D02*
X18575Y-27206D01*
X18575Y-13896D02*
X18575Y-19096D01*
X16975Y-19096D02*
X16975Y-13896D01*
X18575Y-13896D02*
X16975Y-13896D01*
X16975Y-19096D02*
X18575Y-19096D01*
X28733Y-22085D02*
X28733Y-27285D01*
X27133Y-27285D02*
X27133Y-22085D01*
X28733Y-22085D02*
X27133Y-22085D01*
X27133Y-27285D02*
X28733Y-27285D01*
X28733Y-13739D02*
X28733Y-18939D01*
X27133Y-18939D02*
X27133Y-13739D01*
X28733Y-13739D02*
X27133Y-13739D01*
X27133Y-18939D02*
X28733Y-18939D01*
G54D12*
X10374Y-19513D02*
X10374Y-19113D01*
X10527Y-19113D01*
X10565Y-19132D01*
X10584Y-19151D01*
X10603Y-19189D01*
X10603Y-19246D01*
X10584Y-19284D01*
X10565Y-19303D01*
X10527Y-19322D01*
X10374Y-19322D01*
X10984Y-19513D02*
X10755Y-19513D01*
X10869Y-19513D02*
X10869Y-19113D01*
X10831Y-19170D01*
X10793Y-19208D01*
X10755Y-19227D01*
X20492Y-19553D02*
X20492Y-19153D01*
X20645Y-19153D01*
X20683Y-19172D01*
X20702Y-19191D01*
X20721Y-19229D01*
X20721Y-19286D01*
X20702Y-19324D01*
X20683Y-19343D01*
X20645Y-19362D01*
X20492Y-19362D01*
X20873Y-19191D02*
X20892Y-19172D01*
X20930Y-19153D01*
X21026Y-19153D01*
X21064Y-19172D01*
X21083Y-19191D01*
X21102Y-19229D01*
X21102Y-19267D01*
X21083Y-19324D01*
X20854Y-19553D01*
X21102Y-19553D01*
X65965Y-27505D02*
X65965Y-27105D01*
X66118Y-27105D01*
X66156Y-27124D01*
X66175Y-27143D01*
X66194Y-27181D01*
X66194Y-27238D01*
X66175Y-27276D01*
X66156Y-27295D01*
X66118Y-27314D01*
X65965Y-27314D01*
X66327Y-27105D02*
X66575Y-27105D01*
X66441Y-27257D01*
X66499Y-27257D01*
X66537Y-27276D01*
X66556Y-27295D01*
X66575Y-27333D01*
X66575Y-27429D01*
X66556Y-27467D01*
X66537Y-27486D01*
X66499Y-27505D01*
X66384Y-27505D01*
X66346Y-27486D01*
X66327Y-27467D01*
X65453Y-11679D02*
X65453Y-11279D01*
X65606Y-11279D01*
X65644Y-11298D01*
X65663Y-11317D01*
X65682Y-11355D01*
X65682Y-11412D01*
X65663Y-11450D01*
X65644Y-11469D01*
X65606Y-11488D01*
X65453Y-11488D01*
X66025Y-11412D02*
X66025Y-11679D01*
X65929Y-11260D02*
X65834Y-11546D01*
X66082Y-11546D01*
G54D13*
X42854Y-18438D02*
X42825Y-18466D01*
X42739Y-18495D01*
X42682Y-18495D01*
X42597Y-18466D01*
X42539Y-18409D01*
X42511Y-18352D01*
X42482Y-18238D01*
X42482Y-18152D01*
X42511Y-18038D01*
X42539Y-17981D01*
X42597Y-17923D01*
X42682Y-17895D01*
X42739Y-17895D01*
X42825Y-17923D01*
X42854Y-17952D01*
X43139Y-18495D02*
X43254Y-18495D01*
X43311Y-18466D01*
X43339Y-18438D01*
X43397Y-18352D01*
X43425Y-18238D01*
X43425Y-18009D01*
X43397Y-17952D01*
X43368Y-17923D01*
X43311Y-17895D01*
X43197Y-17895D01*
X43139Y-17923D01*
X43111Y-17952D01*
X43082Y-18009D01*
X43082Y-18152D01*
X43111Y-18209D01*
X43139Y-18238D01*
X43197Y-18266D01*
X43311Y-18266D01*
X43368Y-18238D01*
X43397Y-18209D01*
X43425Y-18152D01*
X43139Y-10438D02*
X43110Y-10466D01*
X43024Y-10495D01*
X42967Y-10495D01*
X42882Y-10466D01*
X42824Y-10409D01*
X42796Y-10352D01*
X42767Y-10238D01*
X42767Y-10152D01*
X42796Y-10038D01*
X42824Y-09981D01*
X42882Y-09923D01*
X42967Y-09895D01*
X43024Y-09895D01*
X43110Y-09923D01*
X43139Y-09952D01*
X34182Y-18438D02*
X34153Y-18466D01*
X34067Y-18495D01*
X34010Y-18495D01*
X33925Y-18466D01*
X33867Y-18409D01*
X33839Y-18352D01*
X33810Y-18238D01*
X33810Y-18152D01*
X33839Y-18038D01*
X33867Y-17981D01*
X33925Y-17923D01*
X34010Y-17895D01*
X34067Y-17895D01*
X34153Y-17923D01*
X34182Y-17952D01*
X34753Y-18495D02*
X34410Y-18495D01*
X34582Y-18495D02*
X34582Y-17895D01*
X34525Y-17981D01*
X34467Y-18038D01*
X34410Y-18066D01*
X35124Y-17895D02*
X35181Y-17895D01*
X35238Y-17923D01*
X35267Y-17952D01*
X35296Y-18009D01*
X35324Y-18123D01*
X35324Y-18266D01*
X35296Y-18381D01*
X35267Y-18438D01*
X35238Y-18466D01*
X35181Y-18495D01*
X35124Y-18495D01*
X35067Y-18466D01*
X35038Y-18438D01*
X35010Y-18381D01*
X34981Y-18266D01*
X34981Y-18123D01*
X35010Y-18009D01*
X35038Y-17952D01*
X35067Y-17923D01*
X35124Y-17895D01*
X34753Y-10438D02*
X34724Y-10466D01*
X34638Y-10495D01*
X34581Y-10495D01*
X34496Y-10466D01*
X34438Y-10409D01*
X34410Y-10352D01*
X34381Y-10238D01*
X34381Y-10152D01*
X34410Y-10038D01*
X34438Y-09981D01*
X34496Y-09923D01*
X34581Y-09895D01*
X34638Y-09895D01*
X34724Y-09923D01*
X34753Y-09952D01*
X51072Y-18399D02*
X51043Y-18427D01*
X50957Y-18456D01*
X50900Y-18456D01*
X50815Y-18427D01*
X50757Y-18370D01*
X50729Y-18313D01*
X50700Y-18199D01*
X50700Y-18113D01*
X50729Y-17999D01*
X50757Y-17942D01*
X50815Y-17884D01*
X50900Y-17856D01*
X50957Y-17856D01*
X51043Y-17884D01*
X51072Y-17913D01*
X51643Y-18456D02*
X51300Y-18456D01*
X51472Y-18456D02*
X51472Y-17856D01*
X51415Y-17942D01*
X51357Y-17999D01*
X51300Y-18027D01*
X52214Y-18456D02*
X51871Y-18456D01*
X52043Y-18456D02*
X52043Y-17856D01*
X51986Y-17942D01*
X51928Y-17999D01*
X51871Y-18027D01*
X51643Y-10399D02*
X51614Y-10427D01*
X51528Y-10456D01*
X51471Y-10456D01*
X51386Y-10427D01*
X51328Y-10370D01*
X51300Y-10313D01*
X51271Y-10199D01*
X51271Y-10113D01*
X51300Y-09999D01*
X51328Y-09942D01*
X51386Y-09884D01*
X51471Y-09856D01*
X51528Y-09856D01*
X51614Y-09884D01*
X51643Y-09913D01*
X59182Y-18399D02*
X59153Y-18427D01*
X59067Y-18456D01*
X59010Y-18456D01*
X58925Y-18427D01*
X58867Y-18370D01*
X58839Y-18313D01*
X58810Y-18199D01*
X58810Y-18113D01*
X58839Y-17999D01*
X58867Y-17942D01*
X58925Y-17884D01*
X59010Y-17856D01*
X59067Y-17856D01*
X59153Y-17884D01*
X59182Y-17913D01*
X59753Y-18456D02*
X59410Y-18456D01*
X59582Y-18456D02*
X59582Y-17856D01*
X59525Y-17942D01*
X59467Y-17999D01*
X59410Y-18027D01*
X59981Y-17913D02*
X60010Y-17884D01*
X60067Y-17856D01*
X60210Y-17856D01*
X60267Y-17884D01*
X60296Y-17913D01*
X60324Y-17970D01*
X60324Y-18027D01*
X60296Y-18113D01*
X59953Y-18456D01*
X60324Y-18456D01*
X59753Y-10399D02*
X59724Y-10427D01*
X59638Y-10456D01*
X59581Y-10456D01*
X59496Y-10427D01*
X59438Y-10370D01*
X59410Y-10313D01*
X59381Y-10199D01*
X59381Y-10113D01*
X59410Y-09999D01*
X59438Y-09942D01*
X59496Y-09884D01*
X59581Y-09856D01*
X59638Y-09856D01*
X59724Y-09884D01*
X59753Y-09913D01*
X34468Y-31273D02*
X34439Y-31301D01*
X34353Y-31330D01*
X34296Y-31330D01*
X34211Y-31301D01*
X34153Y-31244D01*
X34125Y-31187D01*
X34096Y-31073D01*
X34096Y-30987D01*
X34125Y-30873D01*
X34153Y-30816D01*
X34211Y-30758D01*
X34296Y-30730D01*
X34353Y-30730D01*
X34439Y-30758D01*
X34468Y-30787D01*
X35011Y-30730D02*
X34725Y-30730D01*
X34696Y-31016D01*
X34725Y-30987D01*
X34782Y-30958D01*
X34925Y-30958D01*
X34982Y-30987D01*
X35011Y-31016D01*
X35039Y-31073D01*
X35039Y-31216D01*
X35011Y-31273D01*
X34982Y-31301D01*
X34925Y-31330D01*
X34782Y-31330D01*
X34725Y-31301D01*
X34696Y-31273D01*
X34753Y-23273D02*
X34724Y-23301D01*
X34638Y-23330D01*
X34581Y-23330D01*
X34496Y-23301D01*
X34438Y-23244D01*
X34410Y-23187D01*
X34381Y-23073D01*
X34381Y-22987D01*
X34410Y-22873D01*
X34438Y-22816D01*
X34496Y-22758D01*
X34581Y-22730D01*
X34638Y-22730D01*
X34724Y-22758D01*
X34753Y-22787D01*
X51397Y-31273D02*
X51368Y-31301D01*
X51282Y-31330D01*
X51225Y-31330D01*
X51140Y-31301D01*
X51082Y-31244D01*
X51054Y-31187D01*
X51025Y-31073D01*
X51025Y-30987D01*
X51054Y-30873D01*
X51082Y-30816D01*
X51140Y-30758D01*
X51225Y-30730D01*
X51282Y-30730D01*
X51368Y-30758D01*
X51397Y-30787D01*
X51911Y-30730D02*
X51797Y-30730D01*
X51740Y-30758D01*
X51711Y-30787D01*
X51654Y-30873D01*
X51625Y-30987D01*
X51625Y-31216D01*
X51654Y-31273D01*
X51682Y-31301D01*
X51740Y-31330D01*
X51854Y-31330D01*
X51911Y-31301D01*
X51940Y-31273D01*
X51968Y-31216D01*
X51968Y-31073D01*
X51940Y-31016D01*
X51911Y-30987D01*
X51854Y-30958D01*
X51740Y-30958D01*
X51682Y-30987D01*
X51654Y-31016D01*
X51625Y-31073D01*
X51682Y-23273D02*
X51653Y-23301D01*
X51567Y-23330D01*
X51510Y-23330D01*
X51425Y-23301D01*
X51367Y-23244D01*
X51339Y-23187D01*
X51310Y-23073D01*
X51310Y-22987D01*
X51339Y-22873D01*
X51367Y-22816D01*
X51425Y-22758D01*
X51510Y-22730D01*
X51567Y-22730D01*
X51653Y-22758D01*
X51682Y-22787D01*
X59429Y-31312D02*
X59400Y-31340D01*
X59314Y-31369D01*
X59257Y-31369D01*
X59172Y-31340D01*
X59114Y-31283D01*
X59086Y-31226D01*
X59057Y-31112D01*
X59057Y-31026D01*
X59086Y-30912D01*
X59114Y-30855D01*
X59172Y-30797D01*
X59257Y-30769D01*
X59314Y-30769D01*
X59400Y-30797D01*
X59429Y-30826D01*
X59629Y-30769D02*
X60029Y-30769D01*
X59772Y-31369D01*
X59714Y-23312D02*
X59685Y-23340D01*
X59599Y-23369D01*
X59542Y-23369D01*
X59457Y-23340D01*
X59399Y-23283D01*
X59371Y-23226D01*
X59342Y-23112D01*
X59342Y-23026D01*
X59371Y-22912D01*
X59399Y-22855D01*
X59457Y-22797D01*
X59542Y-22769D01*
X59599Y-22769D01*
X59685Y-22797D01*
X59714Y-22826D01*
X42893Y-31273D02*
X42864Y-31301D01*
X42778Y-31330D01*
X42721Y-31330D01*
X42636Y-31301D01*
X42578Y-31244D01*
X42550Y-31187D01*
X42521Y-31073D01*
X42521Y-30987D01*
X42550Y-30873D01*
X42578Y-30816D01*
X42636Y-30758D01*
X42721Y-30730D01*
X42778Y-30730D01*
X42864Y-30758D01*
X42893Y-30787D01*
X43236Y-30987D02*
X43178Y-30958D01*
X43150Y-30930D01*
X43121Y-30873D01*
X43121Y-30844D01*
X43150Y-30787D01*
X43178Y-30758D01*
X43236Y-30730D01*
X43350Y-30730D01*
X43407Y-30758D01*
X43436Y-30787D01*
X43464Y-30844D01*
X43464Y-30873D01*
X43436Y-30930D01*
X43407Y-30958D01*
X43350Y-30987D01*
X43236Y-30987D01*
X43178Y-31016D01*
X43150Y-31044D01*
X43121Y-31101D01*
X43121Y-31216D01*
X43150Y-31273D01*
X43178Y-31301D01*
X43236Y-31330D01*
X43350Y-31330D01*
X43407Y-31301D01*
X43436Y-31273D01*
X43464Y-31216D01*
X43464Y-31101D01*
X43436Y-31044D01*
X43407Y-31016D01*
X43350Y-30987D01*
X43178Y-23273D02*
X43149Y-23301D01*
X43063Y-23330D01*
X43006Y-23330D01*
X42921Y-23301D01*
X42863Y-23244D01*
X42835Y-23187D01*
X42806Y-23073D01*
X42806Y-22987D01*
X42835Y-22873D01*
X42863Y-22816D01*
X42921Y-22758D01*
X43006Y-22730D01*
X43063Y-22730D01*
X43149Y-22758D01*
X43178Y-22787D01*
G54D12*
X65965Y-20301D02*
X65965Y-19901D01*
X66118Y-19901D01*
X66156Y-19920D01*
X66175Y-19939D01*
X66194Y-19977D01*
X66194Y-20034D01*
X66175Y-20072D01*
X66156Y-20091D01*
X66118Y-20110D01*
X65965Y-20110D01*
X66556Y-19901D02*
X66365Y-19901D01*
X66346Y-20091D01*
X66365Y-20072D01*
X66403Y-20053D01*
X66499Y-20053D01*
X66537Y-20072D01*
X66556Y-20091D01*
X66575Y-20129D01*
X66575Y-20225D01*
X66556Y-20263D01*
X66537Y-20282D01*
X66499Y-20301D01*
X66403Y-20301D01*
X66365Y-20282D01*
X66346Y-20263D01*
X13680Y-25360D02*
X13080Y-25360D01*
X13080Y-25265D01*
X13108Y-25207D01*
X13166Y-25169D01*
X13223Y-25150D01*
X13337Y-25131D01*
X13423Y-25131D01*
X13537Y-25150D01*
X13594Y-25169D01*
X13651Y-25207D01*
X13680Y-25265D01*
X13680Y-25360D01*
X13680Y-24750D02*
X13680Y-24979D01*
X13680Y-24865D02*
X13080Y-24865D01*
X13166Y-24903D01*
X13223Y-24941D01*
X13251Y-24979D01*
X14680Y-25855D02*
X14080Y-25855D01*
X14080Y-25760D01*
X14108Y-25702D01*
X14166Y-25664D01*
X14223Y-25645D01*
X14337Y-25626D01*
X14423Y-25626D01*
X14537Y-25645D01*
X14594Y-25664D01*
X14651Y-25702D01*
X14680Y-25760D01*
X14680Y-25855D01*
X14680Y-25455D02*
X14080Y-25455D01*
X14080Y-25189D02*
X14080Y-25112D01*
X14108Y-25074D01*
X14166Y-25036D01*
X14280Y-25017D01*
X14480Y-25017D01*
X14594Y-25036D01*
X14651Y-25074D01*
X14680Y-25112D01*
X14680Y-25189D01*
X14651Y-25227D01*
X14594Y-25265D01*
X14480Y-25284D01*
X14280Y-25284D01*
X14166Y-25265D01*
X14108Y-25227D01*
X14080Y-25189D01*
X14680Y-24846D02*
X14080Y-24846D01*
X14080Y-24751D01*
X14108Y-24693D01*
X14166Y-24655D01*
X14223Y-24636D01*
X14337Y-24617D01*
X14423Y-24617D01*
X14537Y-24636D01*
X14594Y-24655D01*
X14651Y-24693D01*
X14680Y-24751D01*
X14680Y-24846D01*
X14366Y-24446D02*
X14366Y-24312D01*
X14680Y-24255D02*
X14680Y-24446D01*
X14080Y-24446D01*
X14080Y-24255D01*
X14601Y-16136D02*
X14001Y-16136D01*
X14001Y-16041D01*
X14029Y-15983D01*
X14087Y-15945D01*
X14144Y-15926D01*
X14258Y-15907D01*
X14344Y-15907D01*
X14458Y-15926D01*
X14515Y-15945D01*
X14572Y-15983D01*
X14601Y-16041D01*
X14601Y-16136D01*
X14058Y-15755D02*
X14029Y-15736D01*
X14001Y-15698D01*
X14001Y-15602D01*
X14029Y-15564D01*
X14058Y-15545D01*
X14115Y-15526D01*
X14172Y-15526D01*
X14258Y-15545D01*
X14601Y-15774D01*
X14601Y-15526D01*
X13601Y-16631D02*
X13001Y-16631D01*
X13001Y-16536D01*
X13029Y-16478D01*
X13087Y-16440D01*
X13144Y-16421D01*
X13258Y-16402D01*
X13344Y-16402D01*
X13458Y-16421D01*
X13515Y-16440D01*
X13572Y-16478D01*
X13601Y-16536D01*
X13601Y-16631D01*
X13601Y-16231D02*
X13001Y-16231D01*
X13001Y-15965D02*
X13001Y-15888D01*
X13029Y-15850D01*
X13087Y-15812D01*
X13201Y-15793D01*
X13401Y-15793D01*
X13515Y-15812D01*
X13572Y-15850D01*
X13601Y-15888D01*
X13601Y-15965D01*
X13572Y-16003D01*
X13515Y-16041D01*
X13401Y-16060D01*
X13201Y-16060D01*
X13087Y-16041D01*
X13029Y-16003D01*
X13001Y-15965D01*
X13601Y-15622D02*
X13001Y-15622D01*
X13001Y-15527D01*
X13029Y-15469D01*
X13087Y-15431D01*
X13144Y-15412D01*
X13258Y-15393D01*
X13344Y-15393D01*
X13458Y-15412D01*
X13515Y-15431D01*
X13572Y-15469D01*
X13601Y-15527D01*
X13601Y-15622D01*
X13287Y-15222D02*
X13287Y-15088D01*
X13601Y-15031D02*
X13601Y-15222D01*
X13001Y-15222D01*
X13001Y-15031D01*
X23523Y-25478D02*
X22923Y-25478D01*
X22923Y-25383D01*
X22951Y-25325D01*
X23009Y-25287D01*
X23066Y-25268D01*
X23180Y-25249D01*
X23266Y-25249D01*
X23380Y-25268D01*
X23437Y-25287D01*
X23494Y-25325D01*
X23523Y-25383D01*
X23523Y-25478D01*
X22923Y-25116D02*
X22923Y-24868D01*
X23151Y-25002D01*
X23151Y-24944D01*
X23180Y-24906D01*
X23209Y-24887D01*
X23266Y-24868D01*
X23409Y-24868D01*
X23466Y-24887D01*
X23494Y-24906D01*
X23523Y-24944D01*
X23523Y-25059D01*
X23494Y-25097D01*
X23466Y-25116D01*
X24523Y-25973D02*
X23923Y-25973D01*
X23923Y-25878D01*
X23951Y-25820D01*
X24009Y-25782D01*
X24066Y-25763D01*
X24180Y-25744D01*
X24266Y-25744D01*
X24380Y-25763D01*
X24437Y-25782D01*
X24494Y-25820D01*
X24523Y-25878D01*
X24523Y-25973D01*
X24523Y-25573D02*
X23923Y-25573D01*
X23923Y-25307D02*
X23923Y-25230D01*
X23951Y-25192D01*
X24009Y-25154D01*
X24123Y-25135D01*
X24323Y-25135D01*
X24437Y-25154D01*
X24494Y-25192D01*
X24523Y-25230D01*
X24523Y-25307D01*
X24494Y-25345D01*
X24437Y-25383D01*
X24323Y-25402D01*
X24123Y-25402D01*
X24009Y-25383D01*
X23951Y-25345D01*
X23923Y-25307D01*
X24523Y-24964D02*
X23923Y-24964D01*
X23923Y-24869D01*
X23951Y-24811D01*
X24009Y-24773D01*
X24066Y-24754D01*
X24180Y-24735D01*
X24266Y-24735D01*
X24380Y-24754D01*
X24437Y-24773D01*
X24494Y-24811D01*
X24523Y-24869D01*
X24523Y-24964D01*
X24209Y-24564D02*
X24209Y-24430D01*
X24523Y-24373D02*
X24523Y-24564D01*
X23923Y-24564D01*
X23923Y-24373D01*
X24523Y-16372D02*
X23923Y-16372D01*
X23923Y-16277D01*
X23951Y-16219D01*
X24009Y-16181D01*
X24066Y-16162D01*
X24180Y-16143D01*
X24266Y-16143D01*
X24380Y-16162D01*
X24437Y-16181D01*
X24494Y-16219D01*
X24523Y-16277D01*
X24523Y-16372D01*
X24123Y-15800D02*
X24523Y-15800D01*
X23894Y-15896D02*
X24323Y-15991D01*
X24323Y-15743D01*
X23523Y-16867D02*
X22923Y-16867D01*
X22923Y-16772D01*
X22951Y-16714D01*
X23009Y-16676D01*
X23066Y-16657D01*
X23180Y-16638D01*
X23266Y-16638D01*
X23380Y-16657D01*
X23437Y-16676D01*
X23494Y-16714D01*
X23523Y-16772D01*
X23523Y-16867D01*
X23523Y-16467D02*
X22923Y-16467D01*
X22923Y-16201D02*
X22923Y-16124D01*
X22951Y-16086D01*
X23009Y-16048D01*
X23123Y-16029D01*
X23323Y-16029D01*
X23437Y-16048D01*
X23494Y-16086D01*
X23523Y-16124D01*
X23523Y-16201D01*
X23494Y-16239D01*
X23437Y-16277D01*
X23323Y-16296D01*
X23123Y-16296D01*
X23009Y-16277D01*
X22951Y-16239D01*
X22923Y-16201D01*
X23523Y-15858D02*
X22923Y-15858D01*
X22923Y-15763D01*
X22951Y-15705D01*
X23009Y-15667D01*
X23066Y-15648D01*
X23180Y-15629D01*
X23266Y-15629D01*
X23380Y-15648D01*
X23437Y-15667D01*
X23494Y-15705D01*
X23523Y-15763D01*
X23523Y-15858D01*
X23209Y-15458D02*
X23209Y-15324D01*
X23523Y-15267D02*
X23523Y-15458D01*
X22923Y-15458D01*
X22923Y-15267D01*
G54D13*
X16481Y-24705D02*
X16509Y-24734D01*
X16538Y-24820D01*
X16538Y-24877D01*
X16509Y-24962D01*
X16452Y-25020D01*
X16395Y-25048D01*
X16281Y-25077D01*
X16195Y-25077D01*
X16081Y-25048D01*
X16024Y-25020D01*
X15966Y-24962D01*
X15938Y-24877D01*
X15938Y-24820D01*
X15966Y-24734D01*
X15995Y-24705D01*
X16538Y-24134D02*
X16538Y-24477D01*
X16538Y-24305D02*
X15938Y-24305D01*
X16024Y-24362D01*
X16081Y-24420D01*
X16109Y-24477D01*
X19281Y-24420D02*
X19309Y-24449D01*
X19338Y-24535D01*
X19338Y-24592D01*
X19309Y-24677D01*
X19252Y-24735D01*
X19195Y-24763D01*
X19081Y-24792D01*
X18995Y-24792D01*
X18881Y-24763D01*
X18824Y-24735D01*
X18766Y-24677D01*
X18738Y-24592D01*
X18738Y-24535D01*
X18766Y-24449D01*
X18795Y-24420D01*
X16481Y-16595D02*
X16509Y-16624D01*
X16538Y-16710D01*
X16538Y-16767D01*
X16509Y-16852D01*
X16452Y-16910D01*
X16395Y-16938D01*
X16281Y-16967D01*
X16195Y-16967D01*
X16081Y-16938D01*
X16024Y-16910D01*
X15966Y-16852D01*
X15938Y-16767D01*
X15938Y-16710D01*
X15966Y-16624D01*
X15995Y-16595D01*
X15995Y-16367D02*
X15966Y-16338D01*
X15938Y-16281D01*
X15938Y-16138D01*
X15966Y-16081D01*
X15995Y-16052D01*
X16052Y-16024D01*
X16109Y-16024D01*
X16195Y-16052D01*
X16538Y-16395D01*
X16538Y-16024D01*
X19281Y-16310D02*
X19309Y-16339D01*
X19338Y-16425D01*
X19338Y-16482D01*
X19309Y-16567D01*
X19252Y-16625D01*
X19195Y-16653D01*
X19081Y-16682D01*
X18995Y-16682D01*
X18881Y-16653D01*
X18824Y-16625D01*
X18766Y-16567D01*
X18738Y-16482D01*
X18738Y-16425D01*
X18766Y-16339D01*
X18795Y-16310D01*
X26639Y-24784D02*
X26667Y-24813D01*
X26696Y-24899D01*
X26696Y-24956D01*
X26667Y-25041D01*
X26610Y-25099D01*
X26553Y-25127D01*
X26439Y-25156D01*
X26353Y-25156D01*
X26239Y-25127D01*
X26182Y-25099D01*
X26124Y-25041D01*
X26096Y-24956D01*
X26096Y-24899D01*
X26124Y-24813D01*
X26153Y-24784D01*
X26096Y-24584D02*
X26096Y-24213D01*
X26324Y-24413D01*
X26324Y-24327D01*
X26353Y-24270D01*
X26382Y-24241D01*
X26439Y-24213D01*
X26582Y-24213D01*
X26639Y-24241D01*
X26667Y-24270D01*
X26696Y-24327D01*
X26696Y-24499D01*
X26667Y-24556D01*
X26639Y-24584D01*
X29439Y-24499D02*
X29467Y-24528D01*
X29496Y-24614D01*
X29496Y-24671D01*
X29467Y-24756D01*
X29410Y-24814D01*
X29353Y-24842D01*
X29239Y-24871D01*
X29153Y-24871D01*
X29039Y-24842D01*
X28982Y-24814D01*
X28924Y-24756D01*
X28896Y-24671D01*
X28896Y-24614D01*
X28924Y-24528D01*
X28953Y-24499D01*
X26639Y-16438D02*
X26667Y-16467D01*
X26696Y-16553D01*
X26696Y-16610D01*
X26667Y-16695D01*
X26610Y-16753D01*
X26553Y-16781D01*
X26439Y-16810D01*
X26353Y-16810D01*
X26239Y-16781D01*
X26182Y-16753D01*
X26124Y-16695D01*
X26096Y-16610D01*
X26096Y-16553D01*
X26124Y-16467D01*
X26153Y-16438D01*
X26296Y-15924D02*
X26696Y-15924D01*
X26067Y-16067D02*
X26496Y-16210D01*
X26496Y-15838D01*
X29439Y-16153D02*
X29467Y-16182D01*
X29496Y-16268D01*
X29496Y-16325D01*
X29467Y-16410D01*
X29410Y-16468D01*
X29353Y-16496D01*
X29239Y-16525D01*
X29153Y-16525D01*
X29039Y-16496D01*
X28982Y-16468D01*
X28924Y-16410D01*
X28896Y-16325D01*
X28896Y-16268D01*
X28924Y-16182D01*
X28953Y-16153D01*
M02*
